<svg id="svg" version="1.1" xmlns="http://www.w3.org/2000/svg" xmlns:xlink="http://www.w3.org/1999/xlink" width="400" height="248.85496183206106" viewBox="0, 0, 400,248.85496183206106"><g id="svgg"><path id="path0" d="M304.426 118.400 C 303.677 118.462,302.949 118.603,302.808 118.715 C 302.667 118.827,301.795 118.998,300.871 119.094 C 299.947 119.189,299.191 119.357,299.191 119.465 C 299.191 119.573,298.636 119.736,297.957 119.826 C 297.278 119.916,296.655 120.098,296.573 120.231 C 296.491 120.364,296.150 120.473,295.816 120.473 C 295.482 120.473,295.208 120.592,295.208 120.737 C 295.208 120.882,295.104 120.936,294.977 120.857 C 294.849 120.778,294.675 120.828,294.589 120.967 C 294.503 121.106,294.215 121.220,293.949 121.220 C 293.683 121.220,293.466 121.332,293.466 121.469 C 293.466 121.605,293.270 121.718,293.030 121.719 C 292.791 121.720,292.259 121.943,291.848 122.215 C 291.437 122.487,290.905 122.711,290.666 122.711 C 290.426 122.712,290.229 122.797,290.228 122.900 C 290.227 123.002,289.975 123.208,289.668 123.356 C 288.405 123.966,286.616 125.043,286.538 125.240 C 286.492 125.356,286.305 125.451,286.121 125.451 C 285.937 125.451,285.544 125.759,285.248 126.136 C 284.951 126.512,284.664 126.764,284.610 126.696 C 284.396 126.429,278.034 132.362,278.034 132.828 C 278.034 132.959,277.702 133.341,277.297 133.677 C 276.893 134.013,276.556 134.403,276.551 134.545 C 276.540 134.807,275.750 135.896,275.009 136.671 C 274.783 136.907,274.516 137.359,274.416 137.674 C 274.316 137.989,274.081 138.400,273.894 138.587 C 273.706 138.775,273.553 139.088,273.553 139.283 C 273.553 139.479,273.450 139.639,273.324 139.639 C 273.198 139.639,273.021 139.975,272.931 140.386 C 272.841 140.797,272.676 141.133,272.565 141.133 C 272.454 141.133,272.286 141.439,272.191 141.815 C 272.097 142.190,271.926 142.555,271.811 142.626 C 271.348 142.912,271.240 144.119,271.677 144.119 C 272.111 144.119,272.803 143.561,272.811 143.204 C 272.813 143.091,273.105 142.724,273.460 142.387 C 273.815 142.050,274.401 141.380,274.763 140.897 C 275.541 139.858,275.800 139.615,279.290 136.652 C 279.532 136.447,279.977 136.111,280.279 135.905 C 280.582 135.700,281.086 135.336,281.400 135.096 C 281.714 134.857,282.093 134.661,282.242 134.661 C 282.392 134.661,282.514 134.573,282.514 134.466 C 282.514 134.359,283.270 133.883,284.194 133.408 C 285.118 132.934,285.930 132.489,285.999 132.420 C 286.225 132.194,288.413 131.176,288.673 131.176 C 288.814 131.176,289.250 131.009,289.642 130.804 C 290.034 130.600,290.607 130.432,290.915 130.431 C 291.223 130.430,291.475 130.325,291.475 130.198 C 291.475 130.071,292.092 129.890,292.847 129.796 C 293.602 129.702,294.276 129.532,294.346 129.419 C 294.416 129.306,295.257 129.137,296.215 129.042 C 297.174 128.948,298.018 128.773,298.091 128.654 C 298.267 128.370,307.903 128.373,307.903 128.658 C 307.903 128.778,308.855 128.956,310.019 129.053 C 311.182 129.150,312.134 129.328,312.134 129.447 C 312.134 129.567,312.697 129.740,313.385 129.831 C 314.072 129.923,314.695 130.094,314.768 130.213 C 314.842 130.332,315.091 130.430,315.323 130.431 C 315.554 130.432,316.044 130.589,316.411 130.781 C 316.779 130.972,317.423 131.205,317.843 131.297 C 318.263 131.389,318.606 131.559,318.606 131.674 C 318.606 131.789,318.942 131.957,319.353 132.047 C 319.764 132.137,320.100 132.289,320.100 132.385 C 320.100 132.480,320.603 132.779,321.217 133.049 C 321.832 133.320,322.336 133.613,322.337 133.700 C 322.339 133.788,322.620 133.930,322.962 134.016 C 323.304 134.102,323.584 134.282,323.584 134.417 C 323.584 134.551,323.701 134.661,323.843 134.661 C 324.172 134.661,325.635 135.680,325.899 136.092 C 326.009 136.263,326.206 136.403,326.337 136.403 C 326.816 136.403,333.043 142.466,333.043 142.932 C 333.043 143.051,333.323 143.407,333.665 143.724 C 334.007 144.042,334.287 144.377,334.287 144.469 C 334.287 144.646,335.298 146.146,335.561 146.360 C 335.645 146.428,335.793 146.736,335.889 147.044 C 335.985 147.352,336.159 147.604,336.276 147.604 C 336.393 147.604,336.562 147.940,336.652 148.351 C 336.742 148.762,336.910 149.098,337.026 149.098 C 337.141 149.098,337.309 149.434,337.399 149.844 C 337.489 150.255,337.666 150.591,337.792 150.591 C 337.918 150.591,338.021 150.708,338.021 150.851 C 338.021 151.361,339.656 153.301,340.566 153.870 C 341.075 154.189,341.496 154.533,341.499 154.636 C 341.503 154.739,341.668 154.823,341.867 154.823 C 342.065 154.823,342.317 154.971,342.427 155.152 C 342.662 155.540,344.539 156.316,345.245 156.316 C 345.516 156.316,345.737 156.428,345.737 156.565 C 345.737 156.718,346.940 156.814,348.849 156.814 C 350.757 156.814,351.960 156.718,351.960 156.565 C 351.960 156.418,352.873 156.316,354.200 156.316 C 355.432 156.316,356.441 156.419,356.441 156.545 C 356.441 156.671,356.777 156.848,357.187 156.938 C 357.598 157.029,357.934 157.206,357.934 157.332 C 357.934 157.458,358.096 157.561,358.295 157.561 C 358.494 157.561,358.746 157.703,358.855 157.878 C 358.965 158.052,359.345 158.379,359.700 158.605 C 360.055 158.830,360.690 159.360,361.112 159.781 C 361.533 160.203,361.983 160.548,362.110 160.548 C 362.237 160.548,362.624 160.800,362.968 161.108 C 364.233 162.238,364.660 162.531,365.273 162.685 C 365.617 162.771,365.899 162.942,365.899 163.064 C 365.899 163.186,366.039 163.286,366.210 163.287 C 366.381 163.288,366.822 163.445,367.189 163.637 C 367.556 163.829,368.229 164.065,368.683 164.162 C 369.137 164.259,369.620 164.427,369.757 164.536 C 369.894 164.644,370.538 164.812,371.189 164.909 L 372.371 165.085 372.371 162.069 C 372.371 160.225,372.274 159.054,372.122 159.054 C 371.985 159.054,371.873 158.759,371.873 158.399 C 371.873 157.285,369.546 154.076,368.738 154.076 C 368.575 154.076,368.377 153.908,368.298 153.703 C 368.219 153.497,367.983 153.329,367.774 153.329 C 367.564 153.329,367.393 153.226,367.393 153.100 C 367.393 152.974,367.057 152.797,366.646 152.707 C 366.235 152.617,365.899 152.449,365.899 152.334 C 365.899 152.218,365.564 152.051,365.155 151.961 C 364.746 151.871,364.348 151.694,364.269 151.568 C 364.191 151.441,363.938 151.337,363.707 151.336 C 363.475 151.336,362.973 151.172,362.591 150.972 C 362.208 150.773,361.508 150.537,361.035 150.448 C 360.562 150.360,360.174 150.187,360.174 150.066 C 360.174 149.944,359.922 149.841,359.614 149.837 C 359.306 149.832,358.837 149.664,358.571 149.463 C 358.305 149.262,357.902 149.098,357.676 149.098 C 357.298 149.098,356.210 148.664,355.137 148.086 C 354.899 147.958,354.576 147.853,354.418 147.853 C 354.084 147.853,351.897 146.814,351.709 146.566 C 351.639 146.474,351.275 146.322,350.900 146.228 C 350.525 146.134,350.218 145.966,350.218 145.855 C 350.218 145.743,349.882 145.579,349.471 145.488 C 349.060 145.398,348.724 145.224,348.724 145.100 C 348.724 144.977,348.452 144.807,348.120 144.724 C 347.788 144.641,347.455 144.414,347.381 144.221 C 347.307 144.028,347.126 143.871,346.978 143.871 C 346.831 143.871,346.444 143.619,346.119 143.311 C 345.793 143.002,345.154 142.402,344.699 141.976 C 343.135 140.514,341.587 138.767,340.862 137.648 C 340.463 137.032,340.053 136.490,339.950 136.445 C 339.848 136.399,339.764 136.200,339.764 136.001 C 339.764 135.803,339.606 135.580,339.413 135.506 C 339.220 135.432,338.993 135.100,338.910 134.767 C 338.827 134.435,338.657 134.163,338.534 134.163 C 338.411 134.163,338.236 133.827,338.146 133.416 C 338.055 133.006,337.878 132.670,337.752 132.670 C 337.626 132.670,337.523 132.553,337.523 132.411 C 337.523 131.998,336.055 130.022,334.599 128.474 C 334.154 128.002,333.790 127.543,333.790 127.454 C 333.790 127.267,332.171 125.581,331.213 124.768 C 330.850 124.461,330.554 124.280,330.554 124.366 C 330.554 124.452,330.322 124.228,330.038 123.867 C 329.754 123.506,329.362 123.211,329.167 123.211 C 328.971 123.211,328.811 123.101,328.811 122.967 C 328.811 122.832,328.531 122.652,328.189 122.566 C 327.847 122.481,327.567 122.323,327.567 122.215 C 327.567 122.108,327.278 121.948,326.924 121.859 C 326.570 121.770,325.844 121.422,325.311 121.085 C 324.777 120.748,324.240 120.473,324.116 120.473 C 323.992 120.473,323.569 120.306,323.177 120.101 C 322.785 119.897,322.156 119.729,321.780 119.728 C 321.403 119.727,321.095 119.623,321.095 119.497 C 321.095 119.371,320.339 119.188,319.415 119.091 C 318.491 118.993,317.665 118.804,317.579 118.670 C 317.416 118.416,306.885 118.200,304.426 118.400 " stroke="none" fill="#4bc4e4" fill-rule="evenodd"></path><path id="path1" d="M298.942 132.475 C 298.942 132.582,298.382 132.670,297.698 132.670 C 297.013 132.670,296.453 132.766,296.453 132.883 C 296.453 133.000,295.764 133.168,294.923 133.256 C 294.081 133.344,293.269 133.518,293.118 133.642 C 292.967 133.766,292.508 133.922,292.097 133.990 C 291.686 134.057,291.014 134.291,290.604 134.510 C 290.193 134.728,289.605 134.907,289.297 134.908 C 288.989 134.909,288.737 135.013,288.737 135.139 C 288.737 135.265,288.373 135.445,287.928 135.540 C 287.483 135.635,286.923 135.885,286.683 136.096 C 286.444 136.307,286.248 136.386,286.248 136.270 C 286.248 136.155,286.019 136.306,285.740 136.605 C 285.461 136.905,285.069 137.150,284.869 137.150 C 284.669 137.150,284.505 137.262,284.505 137.399 C 284.505 137.536,284.337 137.648,284.132 137.648 C 283.927 137.648,283.759 137.778,283.759 137.938 C 283.759 138.098,283.689 138.159,283.604 138.074 C 283.520 137.990,283.314 138.055,283.148 138.220 C 282.981 138.384,282.530 138.743,282.144 139.017 C 281.758 139.291,281.236 139.711,280.983 139.950 C 280.730 140.190,280.523 140.322,280.523 140.244 C 280.523 140.165,280.367 140.249,280.177 140.430 C 277.711 142.775,276.540 143.978,276.540 144.168 C 276.540 144.294,276.436 144.334,276.309 144.255 C 276.182 144.176,276.007 144.336,275.920 144.610 C 275.771 145.079,275.236 145.803,274.238 146.884 C 273.998 147.143,273.864 147.355,273.939 147.355 C 274.014 147.355,273.749 147.831,273.350 148.413 C 272.951 148.995,272.402 149.919,272.129 150.467 C 271.856 151.014,271.449 151.798,271.225 152.209 C 271.001 152.620,270.818 153.158,270.817 153.406 C 270.816 153.664,270.701 153.786,270.547 153.691 C 270.374 153.584,270.308 153.770,270.361 154.217 C 270.440 154.889,271.064 155.416,271.064 154.810 C 271.064 154.644,271.305 154.299,271.600 154.043 C 271.895 153.787,272.046 153.578,271.937 153.578 C 271.828 153.578,272.035 153.303,272.397 152.968 C 272.759 152.632,273.056 152.268,273.057 152.159 C 273.058 151.857,274.727 150.105,274.873 150.252 C 274.944 150.322,275.075 150.147,275.165 149.863 C 275.255 149.579,275.490 149.347,275.686 149.347 C 275.882 149.347,276.042 149.179,276.042 148.973 C 276.042 148.768,276.185 148.600,276.360 148.600 C 276.535 148.600,277.033 148.276,277.466 147.880 C 277.899 147.485,278.316 147.223,278.393 147.299 C 278.469 147.376,278.531 147.308,278.531 147.148 C 278.531 146.988,278.687 146.857,278.878 146.857 C 279.069 146.857,279.289 146.689,279.368 146.484 C 279.447 146.279,279.683 146.111,279.893 146.111 C 280.102 146.111,280.274 145.999,280.274 145.862 C 280.274 145.725,280.388 145.613,280.528 145.613 C 280.667 145.613,281.227 145.332,281.772 144.988 C 282.317 144.644,282.763 144.424,282.763 144.499 C 282.763 144.575,282.998 144.418,283.285 144.150 C 283.573 143.882,284.104 143.589,284.465 143.498 C 284.827 143.408,285.206 143.202,285.308 143.042 C 285.443 142.830,285.494 142.840,285.497 143.079 C 285.500 143.326,285.599 143.311,285.892 143.017 C 286.107 142.802,286.493 142.626,286.749 142.626 C 287.005 142.626,287.277 142.524,287.353 142.400 C 287.430 142.276,288.053 142.098,288.737 142.004 C 289.421 141.910,290.035 141.744,290.102 141.636 C 290.169 141.528,290.869 141.355,291.658 141.252 C 292.447 141.149,293.485 141.005,293.964 140.932 C 296.595 140.534,304.781 141.037,305.165 141.621 C 305.233 141.725,305.822 141.889,306.473 141.985 C 307.124 142.081,307.964 142.319,308.340 142.515 C 308.716 142.711,309.226 142.873,309.473 142.873 C 309.721 142.874,309.863 142.973,309.789 143.093 C 309.715 143.213,310.100 143.382,310.645 143.469 C 311.191 143.556,311.637 143.745,311.637 143.888 C 311.637 144.032,311.740 144.085,311.865 144.007 C 311.991 143.930,312.267 144.039,312.479 144.251 C 312.690 144.462,312.951 144.636,313.059 144.637 C 313.601 144.643,314.375 144.948,314.375 145.157 C 314.375 145.287,314.483 145.326,314.616 145.244 C 314.749 145.162,315.225 145.289,315.674 145.527 C 316.521 145.975,316.772 146.060,317.922 146.283 C 318.298 146.356,318.606 146.515,318.606 146.637 C 318.606 146.758,318.690 146.836,318.793 146.810 C 319.058 146.743,320.633 147.130,321.087 147.375 C 322.188 147.967,329.625 148.598,329.918 148.124 C 330.010 147.975,330.418 147.853,330.825 147.853 C 332.144 147.853,331.968 146.750,330.394 145.147 C 330.076 144.823,329.862 144.480,329.921 144.386 C 329.979 144.292,329.733 143.998,329.375 143.732 C 329.017 143.466,328.630 143.136,328.515 142.999 C 327.600 141.911,327.120 141.454,326.737 141.307 C 326.480 141.209,326.366 141.014,326.469 140.847 C 326.581 140.667,326.539 140.625,326.361 140.735 C 326.203 140.833,326.073 140.794,326.073 140.649 C 326.073 140.504,325.958 140.386,325.816 140.386 C 325.675 140.386,325.230 140.050,324.829 139.639 C 324.427 139.228,323.983 138.892,323.842 138.892 C 323.700 138.892,323.584 138.807,323.584 138.703 C 323.584 138.599,323.349 138.367,323.060 138.187 C 322.627 137.916,322.567 137.917,322.716 138.189 C 322.815 138.371,322.603 138.194,322.245 137.796 C 321.886 137.398,321.593 137.149,321.593 137.241 C 321.593 137.334,320.893 137.035,320.037 136.577 C 318.196 135.589,314.151 133.914,313.610 133.914 C 313.401 133.914,313.118 133.803,312.982 133.667 C 312.846 133.531,312.040 133.347,311.190 133.258 C 310.340 133.169,309.645 133.000,309.645 132.883 C 309.645 132.766,309.029 132.670,308.276 132.670 C 307.523 132.670,306.907 132.583,306.907 132.478 C 306.907 132.372,305.115 132.285,302.925 132.283 C 300.734 132.281,298.942 132.368,298.942 132.475 " stroke="none" fill="#94dbeb" fill-rule="evenodd"></path><path id="path2" d="M0.000 124.332 L 0.000 248.664 30.554 248.601 L 61.108 248.538 61.170 175.918 C 61.231 105.986,61.271 102.045,61.910 103.734 C 62.001 103.973,62.222 104.317,62.401 104.498 C 62.579 104.679,62.726 104.987,62.726 105.183 C 62.726 105.378,62.825 105.538,62.948 105.538 C 63.070 105.538,63.240 105.818,63.326 106.161 C 63.412 106.503,63.592 106.783,63.726 106.783 C 63.860 106.783,63.970 106.929,63.970 107.107 C 63.970 107.409,65.357 109.489,65.747 109.772 C 65.843 109.842,65.999 110.206,66.093 110.581 C 66.187 110.956,66.396 111.263,66.558 111.263 C 66.719 111.263,66.870 111.514,66.893 111.820 C 66.916 112.126,67.052 112.415,67.195 112.463 C 67.338 112.510,67.455 112.711,67.455 112.910 C 67.455 113.108,67.623 113.335,67.828 113.413 C 68.034 113.492,68.202 113.705,68.202 113.886 C 68.202 114.067,68.355 114.368,68.542 114.555 C 68.729 114.742,68.967 115.162,69.070 115.487 C 69.174 115.813,69.355 116.199,69.473 116.347 C 69.591 116.494,69.966 116.963,70.307 117.389 C 70.647 117.815,70.854 118.235,70.767 118.323 C 70.679 118.410,70.738 118.482,70.898 118.482 C 71.058 118.482,71.189 118.650,71.189 118.855 C 71.189 119.060,71.298 119.228,71.433 119.228 C 71.567 119.228,71.747 119.508,71.833 119.851 C 71.919 120.193,72.089 120.473,72.211 120.473 C 72.333 120.473,72.433 120.644,72.433 120.854 C 72.433 121.064,72.601 121.300,72.806 121.379 C 73.012 121.457,73.180 121.737,73.180 122.001 C 73.180 122.264,73.341 122.542,73.538 122.617 C 73.735 122.693,73.968 123.081,74.056 123.481 C 74.143 123.880,74.316 124.207,74.439 124.207 C 74.563 124.207,74.734 124.487,74.820 124.829 C 74.906 125.171,75.076 125.451,75.198 125.451 C 75.320 125.451,75.420 125.623,75.420 125.832 C 75.420 126.042,75.578 126.274,75.771 126.348 C 75.964 126.422,76.190 126.755,76.274 127.087 C 76.357 127.419,76.535 127.691,76.669 127.691 C 76.804 127.691,76.914 127.859,76.914 128.065 C 76.914 128.270,77.013 128.438,77.135 128.438 C 77.257 128.438,77.428 128.718,77.514 129.060 C 77.599 129.403,77.771 129.683,77.894 129.683 C 78.018 129.683,78.190 130.009,78.278 130.409 C 78.366 130.808,78.599 131.196,78.796 131.272 C 78.993 131.348,79.154 131.581,79.154 131.791 C 79.154 132.000,79.264 132.172,79.398 132.172 C 79.532 132.172,79.712 132.452,79.798 132.794 C 79.884 133.136,80.054 133.416,80.176 133.416 C 80.298 133.416,80.398 133.576,80.398 133.772 C 80.398 133.967,80.540 134.275,80.712 134.456 C 80.885 134.637,81.193 135.113,81.397 135.513 C 82.149 136.990,82.265 137.150,82.588 137.150 C 82.769 137.150,82.848 137.262,82.763 137.399 C 82.678 137.536,82.719 137.648,82.853 137.648 C 82.987 137.648,83.171 137.984,83.261 138.395 C 83.351 138.805,83.526 139.141,83.649 139.141 C 83.773 139.141,83.944 139.421,84.030 139.764 C 84.116 140.106,84.286 140.386,84.408 140.386 C 84.530 140.386,84.630 140.557,84.630 140.767 C 84.630 140.977,84.788 141.209,84.981 141.283 C 85.174 141.357,85.400 141.689,85.483 142.022 C 85.567 142.354,85.736 142.626,85.859 142.626 C 85.983 142.626,86.157 142.962,86.248 143.373 C 86.338 143.783,86.495 144.119,86.597 144.119 C 86.698 144.119,87.033 144.624,87.341 145.240 C 87.649 145.856,88.005 146.360,88.132 146.360 C 88.259 146.360,88.363 146.528,88.363 146.733 C 88.363 146.938,88.473 147.106,88.608 147.106 C 88.742 147.106,88.922 147.386,89.008 147.729 C 89.094 148.071,89.264 148.351,89.386 148.351 C 89.508 148.351,89.608 148.522,89.608 148.732 C 89.608 148.942,89.776 149.178,89.981 149.257 C 90.187 149.335,90.355 149.615,90.355 149.879 C 90.355 150.142,90.516 150.420,90.713 150.495 C 90.910 150.571,91.143 150.959,91.230 151.359 C 91.318 151.758,91.491 152.085,91.614 152.085 C 91.738 152.085,91.909 152.365,91.995 152.707 C 92.081 153.049,92.251 153.329,92.373 153.329 C 92.495 153.329,92.595 153.501,92.595 153.710 C 92.595 153.920,92.763 154.156,92.968 154.235 C 93.174 154.314,93.342 154.534,93.342 154.725 C 93.342 154.916,93.460 155.072,93.605 155.072 C 93.750 155.072,93.800 155.184,93.715 155.320 C 93.630 155.457,93.680 155.569,93.825 155.569 C 93.970 155.569,94.088 155.737,94.088 155.943 C 94.088 156.148,94.188 156.316,94.310 156.316 C 94.432 156.316,94.602 156.596,94.688 156.938 C 94.774 157.281,94.946 157.561,95.069 157.561 C 95.192 157.561,95.365 157.887,95.453 158.287 C 95.541 158.686,95.773 159.074,95.970 159.150 C 96.167 159.226,96.329 159.459,96.329 159.669 C 96.329 159.878,96.438 160.050,96.573 160.050 C 96.707 160.050,96.887 160.330,96.973 160.672 C 97.059 161.014,97.217 161.294,97.324 161.294 C 97.431 161.294,97.589 161.574,97.675 161.917 C 97.761 162.259,97.941 162.539,98.076 162.539 C 98.210 162.539,98.320 162.712,98.320 162.924 C 98.320 163.135,98.588 163.576,98.916 163.904 C 99.243 164.232,99.450 164.562,99.374 164.638 C 99.298 164.714,99.462 164.973,99.738 165.213 C 100.014 165.454,100.327 165.925,100.433 166.261 C 100.539 166.597,100.779 167.025,100.966 167.212 C 101.154 167.399,101.307 167.713,101.307 167.908 C 101.307 168.104,101.419 168.264,101.556 168.264 C 101.693 168.264,101.805 168.435,101.805 168.645 C 101.805 168.855,101.963 169.087,102.156 169.161 C 102.349 169.235,102.575 169.567,102.658 169.900 C 102.741 170.232,102.911 170.504,103.034 170.504 C 103.158 170.504,103.332 170.840,103.423 171.251 C 103.513 171.661,103.682 171.998,103.798 171.998 C 103.915 171.998,104.262 172.502,104.569 173.118 C 104.877 173.734,105.221 174.238,105.333 174.238 C 105.446 174.238,105.538 174.406,105.538 174.611 C 105.538 174.816,105.648 174.984,105.782 174.984 C 105.917 174.984,106.097 175.264,106.183 175.607 C 106.269 175.949,106.439 176.229,106.561 176.229 C 106.683 176.229,106.783 176.401,106.783 176.610 C 106.783 176.820,106.944 177.053,107.141 177.129 C 107.338 177.204,107.569 177.585,107.655 177.975 C 107.740 178.365,107.971 178.817,108.168 178.980 C 108.364 179.143,108.525 179.431,108.525 179.620 C 108.525 179.808,108.635 179.963,108.769 179.963 C 108.904 179.963,109.084 180.243,109.170 180.585 C 109.256 180.927,109.426 181.207,109.548 181.207 C 109.670 181.207,109.770 181.379,109.770 181.588 C 109.770 181.798,109.938 182.034,110.143 182.113 C 110.348 182.192,110.516 182.412,110.516 182.603 C 110.516 182.794,110.635 182.950,110.780 182.950 C 110.925 182.950,110.985 183.045,110.913 183.161 C 110.841 183.277,110.989 183.594,111.241 183.864 C 111.494 184.135,111.777 184.600,111.872 184.898 C 111.966 185.195,112.139 185.439,112.256 185.439 C 112.373 185.439,112.540 185.765,112.628 186.165 C 112.715 186.564,112.948 186.952,113.145 187.028 C 113.342 187.104,113.503 187.337,113.503 187.547 C 113.503 187.756,113.613 187.928,113.748 187.928 C 113.882 187.928,114.062 188.208,114.148 188.550 C 114.234 188.892,114.392 189.172,114.499 189.172 C 114.606 189.172,114.764 189.452,114.850 189.795 C 114.936 190.137,115.116 190.417,115.251 190.417 C 115.385 190.417,115.495 190.590,115.495 190.802 C 115.495 191.013,115.763 191.454,116.091 191.782 C 116.418 192.110,116.624 192.440,116.549 192.516 C 116.473 192.592,116.636 192.851,116.913 193.091 C 117.189 193.332,117.502 193.803,117.608 194.139 C 117.714 194.475,117.954 194.903,118.141 195.090 C 118.328 195.277,118.482 195.591,118.482 195.786 C 118.482 195.982,118.594 196.142,118.731 196.142 C 118.867 196.142,118.979 196.313,118.979 196.523 C 118.979 196.733,119.137 196.965,119.330 197.039 C 119.523 197.113,119.750 197.445,119.833 197.778 C 119.916 198.110,120.086 198.382,120.209 198.382 C 120.332 198.382,120.507 198.718,120.597 199.129 C 120.688 199.540,120.857 199.876,120.973 199.876 C 121.089 199.876,121.436 200.380,121.744 200.996 C 122.052 201.612,122.396 202.116,122.508 202.116 C 122.621 202.116,122.713 202.284,122.713 202.489 C 122.713 202.694,122.823 202.862,122.957 202.862 C 123.092 202.862,123.272 203.143,123.358 203.485 C 123.444 203.827,123.614 204.107,123.736 204.107 C 123.858 204.107,123.958 204.279,123.958 204.488 C 123.958 204.698,124.119 204.931,124.316 205.007 C 124.513 205.082,124.746 205.471,124.833 205.870 C 124.921 206.269,125.088 206.596,125.205 206.596 C 125.322 206.596,125.496 206.843,125.592 207.145 C 125.687 207.446,125.919 207.846,126.106 208.034 C 126.294 208.221,126.447 208.534,126.447 208.730 C 126.447 208.925,126.559 209.085,126.696 209.085 C 126.833 209.085,126.945 209.257,126.945 209.466 C 126.945 209.676,127.113 209.912,127.318 209.991 C 127.523 210.070,127.691 210.290,127.691 210.481 C 127.691 210.672,127.810 210.828,127.955 210.828 C 128.100 210.828,128.160 210.923,128.088 211.039 C 128.016 211.155,128.164 211.472,128.416 211.742 C 128.669 212.013,128.952 212.478,129.047 212.776 C 129.141 213.073,129.314 213.317,129.431 213.317 C 129.548 213.317,129.715 213.643,129.803 214.043 C 129.890 214.442,130.123 214.830,130.320 214.906 C 130.517 214.982,130.678 215.215,130.678 215.425 C 130.678 215.634,130.790 215.806,130.927 215.806 C 131.064 215.806,131.176 215.966,131.176 216.161 C 131.176 216.357,131.316 216.670,131.487 216.856 C 131.922 217.331,132.353 218.037,132.767 218.954 C 132.962 219.385,133.327 219.853,133.580 219.994 C 133.832 220.136,134.003 220.287,133.960 220.331 C 133.829 220.464,134.239 221.385,134.585 221.735 C 134.763 221.916,134.910 222.224,134.910 222.420 C 134.910 222.615,135.019 222.775,135.152 222.775 C 135.286 222.775,135.625 223.279,135.905 223.895 C 136.186 224.512,136.525 225.016,136.658 225.016 C 136.792 225.016,136.901 225.176,136.901 225.371 C 136.901 225.567,137.042 225.875,137.215 226.056 C 137.388 226.237,137.667 226.665,137.836 227.007 C 138.215 227.776,138.718 228.584,138.921 228.749 C 139.005 228.818,139.153 229.126,139.249 229.434 C 139.345 229.742,139.528 229.994,139.656 229.994 C 139.784 229.994,139.888 230.162,139.888 230.367 C 139.888 230.572,139.998 230.741,140.132 230.741 C 140.266 230.741,140.447 231.021,140.533 231.363 C 140.618 231.705,140.789 231.985,140.911 231.985 C 141.033 231.985,141.133 232.157,141.133 232.366 C 141.133 232.576,141.294 232.809,141.491 232.885 C 141.688 232.960,141.921 233.349,142.008 233.748 C 142.096 234.148,142.263 234.474,142.380 234.474 C 142.497 234.474,142.671 234.721,142.767 235.023 C 142.862 235.324,143.094 235.724,143.281 235.912 C 143.468 236.099,143.622 236.412,143.622 236.608 C 143.622 236.803,143.734 236.963,143.871 236.963 C 144.007 236.963,144.119 237.135,144.119 237.344 C 144.119 237.554,144.287 237.790,144.493 237.869 C 144.698 237.948,144.866 238.168,144.866 238.359 C 144.866 238.550,144.985 238.706,145.130 238.706 C 145.275 238.706,145.335 238.801,145.263 238.917 C 145.191 239.033,145.339 239.350,145.591 239.621 C 145.843 239.891,146.127 240.356,146.222 240.654 C 146.316 240.951,146.498 241.195,146.625 241.195 C 146.753 241.195,146.857 241.363,146.857 241.568 C 146.857 242.449,148.126 241.799,148.459 240.748 C 148.555 240.446,148.738 240.199,148.866 240.199 C 148.993 240.199,149.098 240.028,149.098 239.818 C 149.098 239.608,149.259 239.375,149.456 239.299 C 149.653 239.224,149.886 238.835,149.973 238.436 C 150.061 238.037,150.228 237.710,150.345 237.710 C 150.462 237.710,150.637 237.458,150.735 237.150 C 150.832 236.842,151.121 236.442,151.378 236.262 C 151.634 236.081,151.780 235.829,151.701 235.702 C 151.622 235.574,151.658 235.470,151.782 235.470 C 151.905 235.470,152.220 235.051,152.481 234.540 C 152.742 234.029,153.096 233.461,153.267 233.278 C 153.438 233.095,153.578 232.797,153.578 232.616 C 153.578 232.435,153.746 232.223,153.951 232.144 C 154.157 232.065,154.325 231.829,154.325 231.620 C 154.325 231.410,154.435 231.238,154.569 231.238 C 154.703 231.238,154.883 230.958,154.969 230.616 C 155.055 230.274,155.213 229.994,155.320 229.994 C 155.428 229.994,155.586 229.714,155.672 229.371 C 155.757 229.029,155.938 228.749,156.072 228.749 C 156.206 228.749,156.316 228.578,156.316 228.368 C 156.316 228.158,156.484 227.922,156.689 227.844 C 156.895 227.765,157.063 227.544,157.063 227.354 C 157.063 227.163,157.173 227.007,157.307 227.007 C 157.441 227.007,157.621 226.727,157.707 226.385 C 157.793 226.042,157.963 225.762,158.085 225.762 C 158.208 225.762,158.307 225.646,158.307 225.503 C 158.307 225.258,159.251 223.790,159.581 223.522 C 159.665 223.454,159.812 223.146,159.909 222.838 C 160.005 222.530,160.179 222.278,160.296 222.278 C 160.412 222.278,160.580 221.951,160.667 221.552 C 160.755 221.152,160.988 220.764,161.185 220.688 C 161.382 220.613,161.543 220.379,161.543 220.170 C 161.543 219.960,161.653 219.788,161.787 219.788 C 161.922 219.788,162.102 219.508,162.188 219.166 C 162.274 218.824,162.426 218.544,162.527 218.544 C 162.627 218.544,162.923 218.124,163.184 217.610 C 163.445 217.097,163.799 216.587,163.970 216.478 C 164.141 216.369,164.281 216.116,164.281 215.918 C 164.281 215.719,164.391 215.557,164.525 215.557 C 164.660 215.557,164.840 215.277,164.926 214.935 C 165.012 214.592,165.174 214.312,165.286 214.312 C 165.399 214.312,165.743 213.808,166.050 213.192 C 166.358 212.576,166.690 212.072,166.788 212.072 C 166.885 212.072,167.036 211.792,167.122 211.450 C 167.207 211.108,167.388 210.828,167.522 210.828 C 167.656 210.828,167.766 210.665,167.766 210.467 C 167.766 210.268,167.906 210.016,168.077 209.907 C 168.248 209.797,168.604 209.315,168.867 208.836 C 169.131 208.357,169.411 207.909,169.490 207.841 C 169.709 207.650,170.229 206.785,170.498 206.161 C 170.632 205.853,170.847 205.600,170.976 205.600 C 171.105 205.600,171.285 205.264,171.375 204.854 C 171.465 204.443,171.640 204.107,171.764 204.107 C 171.887 204.107,172.056 203.835,172.140 203.503 C 172.223 203.170,172.449 202.838,172.642 202.764 C 172.835 202.690,172.993 202.458,172.993 202.248 C 172.993 202.038,173.103 201.867,173.237 201.867 C 173.372 201.867,173.552 201.587,173.638 201.245 C 173.724 200.902,173.894 200.622,174.016 200.622 C 174.138 200.622,174.238 200.454,174.238 200.249 C 174.238 200.044,174.348 199.876,174.482 199.876 C 174.616 199.876,174.794 199.604,174.878 199.271 C 174.961 198.939,175.187 198.606,175.380 198.532 C 175.573 198.458,175.731 198.226,175.731 198.017 C 175.731 197.807,175.836 197.635,175.963 197.635 C 176.091 197.635,176.274 197.383,176.370 197.075 C 176.466 196.767,176.614 196.459,176.698 196.391 C 176.920 196.210,177.437 195.358,177.717 194.711 C 177.850 194.403,178.065 194.151,178.194 194.151 C 178.324 194.151,178.503 193.815,178.594 193.404 C 178.684 192.993,178.853 192.657,178.970 192.657 C 179.087 192.657,179.255 192.430,179.343 192.151 C 179.431 191.873,179.747 191.380,180.044 191.055 C 180.933 190.084,181.137 189.785,181.334 189.165 C 181.437 188.840,181.675 188.420,181.862 188.233 C 182.050 188.045,182.203 187.744,182.203 187.563 C 182.203 187.382,182.371 187.170,182.576 187.091 C 182.782 187.012,182.950 186.776,182.950 186.567 C 182.950 186.357,183.059 186.185,183.194 186.185 C 183.328 186.185,183.508 185.905,183.594 185.563 C 183.680 185.221,183.838 184.941,183.945 184.941 C 184.052 184.941,184.210 184.661,184.296 184.319 C 184.382 183.976,184.562 183.696,184.697 183.696 C 184.831 183.696,184.941 183.525,184.941 183.315 C 184.941 183.106,185.109 182.869,185.314 182.791 C 185.520 182.712,185.688 182.491,185.688 182.301 C 185.688 182.110,185.797 181.954,185.932 181.954 C 186.066 181.954,186.246 181.674,186.332 181.332 C 186.418 180.989,186.588 180.709,186.710 180.709 C 186.832 180.709,186.932 180.593,186.932 180.450 C 186.932 180.206,187.876 178.737,188.205 178.469 C 188.290 178.401,188.437 178.093,188.533 177.785 C 188.629 177.477,188.804 177.225,188.920 177.225 C 189.037 177.225,189.205 176.898,189.292 176.499 C 189.380 176.099,189.613 175.711,189.810 175.635 C 190.007 175.560,190.168 175.326,190.168 175.117 C 190.168 174.907,190.272 174.736,190.400 174.736 C 190.528 174.736,190.712 174.484,190.809 174.175 C 190.907 173.867,191.185 173.475,191.429 173.304 C 191.672 173.133,191.943 172.666,192.030 172.267 C 192.118 171.868,192.351 171.479,192.548 171.404 C 192.745 171.328,192.906 171.095,192.906 170.885 C 192.906 170.676,193.016 170.504,193.150 170.504 C 193.284 170.504,193.463 170.232,193.546 169.900 C 193.629 169.567,193.856 169.235,194.049 169.161 C 194.242 169.087,194.400 168.855,194.400 168.645 C 194.400 168.435,194.512 168.264,194.648 168.264 C 194.785 168.264,194.897 168.104,194.897 167.908 C 194.897 167.713,195.051 167.399,195.238 167.212 C 195.425 167.025,195.657 166.625,195.752 166.323 C 195.848 166.022,196.031 165.775,196.159 165.775 C 196.286 165.775,196.391 165.612,196.391 165.414 C 196.391 165.215,196.531 164.963,196.702 164.854 C 196.873 164.744,197.229 164.263,197.492 163.783 C 197.756 163.304,198.036 162.856,198.114 162.788 C 198.334 162.597,198.853 161.732,199.123 161.108 C 199.256 160.800,199.480 160.548,199.620 160.548 C 199.761 160.548,199.876 160.212,199.876 159.801 C 199.876 159.390,199.776 159.054,199.654 159.054 C 199.532 159.054,199.361 158.774,199.276 158.432 C 199.190 158.090,199.009 157.810,198.875 157.810 C 198.741 157.810,198.631 157.638,198.631 157.428 C 198.631 157.219,198.473 156.987,198.280 156.913 C 198.087 156.839,197.861 156.506,197.778 156.174 C 197.694 155.841,197.516 155.569,197.382 155.569 C 197.247 155.569,197.138 155.401,197.138 155.196 C 197.138 154.991,197.028 154.823,196.893 154.823 C 196.759 154.823,196.579 154.543,196.493 154.200 C 196.407 153.858,196.237 153.578,196.115 153.578 C 195.993 153.578,195.893 153.407,195.893 153.197 C 195.893 152.987,195.735 152.755,195.542 152.681 C 195.349 152.607,195.123 152.275,195.040 151.942 C 194.956 151.610,194.778 151.338,194.644 151.338 C 194.509 151.338,194.400 151.166,194.400 150.957 C 194.400 150.747,194.231 150.511,194.026 150.432 C 193.821 150.353,193.653 150.120,193.653 149.914 C 193.653 149.442,191.456 146.111,191.145 146.111 C 191.018 146.111,190.915 145.951,190.915 145.755 C 190.915 145.560,190.762 145.246,190.574 145.059 C 190.387 144.872,190.148 144.444,190.043 144.108 C 189.938 143.772,189.783 143.441,189.699 143.373 C 189.370 143.105,188.426 141.636,188.426 141.392 C 188.426 141.249,188.316 141.133,188.181 141.133 C 188.047 141.133,187.867 140.853,187.781 140.510 C 187.695 140.168,187.525 139.888,187.403 139.888 C 187.281 139.888,187.181 139.716,187.181 139.507 C 187.181 139.297,187.023 139.065,186.830 138.991 C 186.637 138.917,186.411 138.584,186.328 138.252 C 186.244 137.920,186.066 137.648,185.932 137.648 C 185.797 137.648,185.688 137.480,185.688 137.274 C 185.688 137.069,185.578 136.901,185.443 136.901 C 185.309 136.901,185.129 136.621,185.043 136.279 C 184.957 135.937,184.787 135.657,184.665 135.657 C 184.543 135.657,184.443 135.485,184.443 135.275 C 184.443 135.066,184.275 134.830,184.070 134.751 C 183.864 134.672,183.696 134.460,183.696 134.279 C 183.696 134.098,183.543 133.796,183.356 133.609 C 183.169 133.422,182.936 133.020,182.840 132.717 C 182.744 132.413,182.561 132.229,182.434 132.307 C 182.307 132.386,182.203 132.216,182.203 131.930 C 182.203 131.644,182.045 131.349,181.852 131.275 C 181.659 131.201,181.432 130.866,181.348 130.532 C 181.202 129.947,180.801 129.354,179.925 128.425 C 179.699 128.186,179.439 127.754,179.348 127.467 C 179.257 127.180,179.087 126.945,178.970 126.945 C 178.853 126.945,178.684 126.609,178.594 126.198 C 178.503 125.787,178.329 125.451,178.205 125.451 C 178.082 125.451,177.913 125.179,177.829 124.847 C 177.746 124.515,177.520 124.182,177.327 124.108 C 177.134 124.034,176.976 123.802,176.976 123.592 C 176.976 123.382,176.866 123.211,176.732 123.211 C 176.597 123.211,176.417 122.931,176.331 122.589 C 176.245 122.246,176.078 121.966,175.959 121.966 C 175.841 121.966,175.514 121.462,175.233 120.846 C 174.953 120.230,174.614 119.726,174.480 119.726 C 174.347 119.726,174.238 119.558,174.238 119.353 C 174.238 119.147,174.128 118.979,173.994 118.979 C 173.859 118.979,173.681 118.708,173.598 118.375 C 173.514 118.043,173.288 117.710,173.095 117.636 C 172.902 117.562,172.744 117.330,172.744 117.120 C 172.744 116.911,172.632 116.739,172.495 116.739 C 172.358 116.739,172.246 116.579,172.246 116.384 C 172.246 116.188,172.093 115.875,171.906 115.688 C 171.719 115.500,171.487 115.100,171.391 114.799 C 171.296 114.497,171.113 114.250,170.985 114.250 C 170.857 114.250,170.753 114.079,170.753 113.869 C 170.753 113.659,170.595 113.427,170.402 113.353 C 170.209 113.279,169.983 112.947,169.899 112.614 C 169.816 112.282,169.638 112.010,169.504 112.010 C 169.369 112.010,169.259 111.881,169.259 111.722 C 169.259 111.564,168.999 111.088,168.681 110.664 C 168.363 110.241,168.030 109.698,167.942 109.459 C 167.854 109.219,167.678 109.023,167.552 109.023 C 167.426 109.023,167.252 108.743,167.166 108.401 C 167.080 108.058,166.909 107.778,166.785 107.778 C 166.662 107.778,166.489 107.452,166.402 107.053 C 166.314 106.653,166.081 106.265,165.884 106.189 C 165.687 106.114,165.526 105.880,165.526 105.671 C 165.526 105.461,165.421 105.289,165.294 105.289 C 165.166 105.289,164.983 105.037,164.887 104.729 C 164.791 104.421,164.643 104.113,164.559 104.045 C 164.229 103.777,163.286 102.308,163.286 102.064 C 163.286 101.921,163.174 101.805,163.037 101.805 C 162.900 101.805,162.788 101.637,162.788 101.431 C 162.788 101.226,162.678 101.058,162.544 101.058 C 162.409 101.058,162.229 100.778,162.143 100.436 C 162.057 100.093,161.884 99.813,161.759 99.813 C 161.634 99.813,161.422 99.561,161.289 99.253 C 161.009 98.606,160.492 97.754,160.270 97.573 C 160.186 97.505,160.038 97.197,159.942 96.889 C 159.846 96.581,159.663 96.329,159.535 96.329 C 159.408 96.329,159.303 96.157,159.303 95.947 C 159.303 95.738,159.135 95.502,158.930 95.423 C 158.724 95.344,158.556 95.132,158.556 94.951 C 158.556 94.770,158.416 94.469,158.245 94.282 C 157.791 93.787,157.318 93.031,157.151 92.533 C 157.071 92.293,156.906 92.097,156.785 92.097 C 156.664 92.097,156.565 91.926,156.565 91.716 C 156.565 91.506,156.407 91.274,156.214 91.200 C 156.021 91.126,155.795 90.793,155.712 90.461 C 155.628 90.129,155.450 89.857,155.316 89.857 C 155.181 89.857,155.072 89.685,155.072 89.476 C 155.072 89.266,154.910 89.033,154.713 88.957 C 154.516 88.881,154.283 88.493,154.196 88.094 C 154.108 87.694,153.941 87.368,153.824 87.368 C 153.707 87.368,153.533 87.116,153.437 86.808 C 153.341 86.500,153.193 86.192,153.109 86.123 C 152.846 85.910,151.836 84.410,151.836 84.233 C 151.836 84.141,151.628 83.885,151.374 83.663 C 151.119 83.442,150.824 82.981,150.718 82.638 C 150.611 82.296,150.453 81.960,150.365 81.892 C 150.278 81.823,150.010 81.459,149.771 81.083 C 148.439 78.990,148.352 81.263,148.352 118.419 C 148.351 134.554,148.261 144.866,148.120 144.866 C 147.992 144.866,147.636 144.362,147.329 143.746 C 147.021 143.130,146.689 142.626,146.591 142.626 C 146.494 142.626,146.350 142.372,146.272 142.061 C 146.194 141.750,145.906 141.256,145.633 140.962 C 145.359 140.668,145.065 140.147,144.978 139.803 C 144.892 139.459,144.663 139.117,144.470 139.043 C 144.277 138.969,144.119 138.680,144.119 138.402 C 144.119 138.124,144.032 137.897,143.925 137.897 C 143.818 137.897,143.590 137.589,143.418 137.212 C 142.840 135.950,142.509 135.408,142.318 135.408 C 142.214 135.408,142.128 135.248,142.128 135.052 C 142.128 134.856,141.988 134.543,141.817 134.356 C 141.646 134.169,141.299 133.629,141.047 133.156 C 140.002 131.199,139.749 130.793,139.452 130.604 C 139.281 130.494,139.141 130.242,139.141 130.044 C 139.141 129.845,139.041 129.683,138.919 129.683 C 138.797 129.683,138.627 129.403,138.541 129.060 C 138.455 128.718,138.284 128.438,138.161 128.438 C 138.037 128.438,137.862 128.102,137.772 127.691 C 137.682 127.281,137.507 126.945,137.384 126.945 C 137.260 126.945,137.089 126.665,137.003 126.322 C 136.917 125.980,136.772 125.700,136.680 125.700 C 136.588 125.700,136.380 125.392,136.218 125.016 C 135.902 124.281,135.379 123.413,135.130 123.211 C 135.046 123.143,134.898 122.834,134.802 122.526 C 134.706 122.218,134.523 121.966,134.395 121.966 C 134.267 121.966,134.163 121.798,134.163 121.593 C 134.163 121.388,134.063 121.220,133.941 121.220 C 133.819 121.220,133.649 120.940,133.563 120.597 C 133.477 120.255,133.306 119.975,133.182 119.975 C 133.059 119.975,132.886 119.648,132.799 119.249 C 132.711 118.850,132.478 118.461,132.281 118.386 C 132.084 118.310,131.923 118.077,131.923 117.867 C 131.923 117.658,131.823 117.486,131.701 117.486 C 131.579 117.486,131.409 117.206,131.323 116.864 C 131.237 116.521,131.066 116.241,130.942 116.241 C 130.819 116.241,130.644 115.905,130.554 115.495 C 130.464 115.084,130.289 114.748,130.165 114.748 C 130.042 114.748,129.871 114.468,129.785 114.126 C 129.699 113.783,129.529 113.503,129.407 113.503 C 129.285 113.503,129.185 113.352,129.185 113.166 C 129.185 112.981,128.913 112.537,128.582 112.179 C 128.250 111.821,127.899 111.278,127.802 110.972 C 127.705 110.666,127.472 110.262,127.285 110.075 C 127.098 109.887,126.945 109.574,126.945 109.379 C 126.945 109.183,126.845 109.023,126.723 109.023 C 126.601 109.023,126.430 108.743,126.345 108.401 C 126.259 108.058,126.087 107.778,125.964 107.778 C 125.841 107.778,125.668 107.452,125.580 107.053 C 125.492 106.653,125.260 106.265,125.063 106.189 C 124.866 106.114,124.704 105.880,124.704 105.671 C 124.704 105.461,124.592 105.289,124.456 105.289 C 124.319 105.289,124.207 105.129,124.207 104.934 C 124.207 104.738,124.067 104.428,123.895 104.245 C 123.724 104.062,123.371 103.494,123.110 102.983 C 122.848 102.472,122.549 102.054,122.445 102.054 C 122.340 102.054,122.181 101.717,122.091 101.307 C 122.001 100.896,121.824 100.560,121.698 100.560 C 121.572 100.560,121.469 100.389,121.469 100.179 C 121.469 99.969,121.307 99.736,121.110 99.660 C 120.913 99.585,120.682 99.204,120.597 98.814 C 120.511 98.424,120.280 97.972,120.084 97.809 C 119.887 97.646,119.726 97.358,119.726 97.169 C 119.726 96.981,119.614 96.826,119.477 96.826 C 119.340 96.826,119.228 96.666,119.228 96.471 C 119.228 96.275,119.087 95.967,118.914 95.786 C 118.742 95.605,118.462 95.177,118.294 94.835 C 117.927 94.090,117.553 93.487,116.802 92.425 C 116.494 91.989,116.241 91.513,116.241 91.367 C 116.241 91.221,116.142 91.101,116.020 91.101 C 115.897 91.101,115.727 90.821,115.641 90.479 C 115.556 90.137,115.384 89.857,115.261 89.857 C 115.137 89.857,114.963 89.521,114.872 89.110 C 114.782 88.699,114.609 88.363,114.487 88.363 C 114.365 88.363,113.982 87.775,113.636 87.057 C 113.024 85.786,112.512 84.883,112.259 84.630 C 112.007 84.378,111.494 83.497,111.351 83.074 C 111.271 82.834,111.106 82.638,110.985 82.638 C 110.864 82.638,110.765 82.478,110.765 82.283 C 110.765 82.087,110.624 81.779,110.451 81.598 C 110.279 81.417,109.999 80.989,109.831 80.647 C 109.452 79.878,108.949 79.070,108.745 78.905 C 108.661 78.836,108.514 78.528,108.418 78.220 C 108.321 77.912,108.147 77.660,108.030 77.660 C 107.914 77.660,107.744 77.324,107.654 76.914 C 107.564 76.503,107.411 76.167,107.313 76.167 C 107.216 76.167,106.808 75.537,106.405 74.768 C 106.003 73.999,105.538 73.317,105.372 73.254 C 105.206 73.190,104.999 72.812,104.911 72.412 C 104.824 72.013,104.651 71.686,104.528 71.686 C 104.404 71.686,104.233 71.406,104.147 71.064 C 104.061 70.722,103.891 70.442,103.769 70.442 C 103.647 70.442,103.547 70.282,103.547 70.086 C 103.547 69.891,103.406 69.583,103.233 69.402 C 103.060 69.221,102.752 68.745,102.548 68.345 C 101.829 66.933,101.685 66.708,101.497 66.708 C 101.392 66.708,101.307 66.548,101.307 66.353 C 101.307 66.157,101.167 65.847,100.996 65.664 C 100.825 65.481,100.471 64.913,100.210 64.402 C 99.949 63.891,99.649 63.472,99.545 63.472 C 99.441 63.472,99.281 63.136,99.191 62.726 C 99.101 62.315,98.924 61.979,98.798 61.979 C 98.672 61.979,98.569 61.807,98.569 61.598 C 98.569 61.388,98.408 61.155,98.211 61.079 C 98.014 61.003,97.781 60.615,97.693 60.216 C 97.605 59.816,97.433 59.490,97.309 59.490 C 97.186 59.490,97.014 59.210,96.929 58.867 C 96.843 58.525,96.685 58.245,96.577 58.245 C 96.470 58.245,96.312 57.965,96.226 57.623 C 96.140 57.281,95.960 57.001,95.826 57.001 C 95.692 57.001,95.582 56.841,95.582 56.646 C 95.582 56.452,95.305 55.963,94.966 55.561 C 94.628 55.159,94.423 54.758,94.510 54.671 C 94.598 54.583,94.538 54.512,94.379 54.512 C 94.219 54.512,94.088 54.343,94.088 54.138 C 94.088 53.933,93.978 53.765,93.844 53.765 C 93.710 53.765,93.530 53.485,93.444 53.143 C 93.358 52.800,93.200 52.520,93.093 52.520 C 92.986 52.520,92.827 52.240,92.742 51.898 C 92.656 51.556,92.484 51.276,92.361 51.276 C 92.238 51.276,92.063 50.940,91.973 50.529 C 91.882 50.118,91.705 49.782,91.579 49.782 C 91.453 49.782,91.350 49.611,91.350 49.401 C 91.350 49.191,91.189 48.958,90.992 48.882 C 90.795 48.807,90.564 48.426,90.478 48.036 C 90.393 47.646,90.162 47.194,89.965 47.031 C 89.769 46.868,89.608 46.580,89.608 46.391 C 89.608 46.203,89.523 46.049,89.418 46.049 C 89.228 46.049,88.778 45.311,88.470 44.493 C 88.379 44.253,88.206 44.057,88.085 44.057 C 87.965 44.057,87.866 43.886,87.866 43.676 C 87.866 43.466,87.698 43.230,87.492 43.152 C 87.287 43.073,87.119 42.811,87.119 42.571 C 87.119 42.330,86.895 41.848,86.621 41.500 C 86.347 41.152,86.123 40.745,86.123 40.595 C 86.123 40.446,86.023 40.324,85.901 40.324 C 85.779 40.324,85.609 40.044,85.523 39.701 C 85.437 39.359,85.266 39.079,85.143 39.079 C 85.019 39.079,84.844 38.743,84.754 38.332 C 84.664 37.922,84.495 37.586,84.379 37.586 C 84.263 37.586,83.862 36.959,83.487 36.193 C 83.113 35.427,82.663 34.746,82.489 34.679 C 82.314 34.612,82.099 34.230,82.012 33.831 C 81.924 33.432,81.751 33.105,81.628 33.105 C 81.504 33.105,81.333 32.825,81.247 32.483 C 81.161 32.141,81.004 31.861,80.898 31.861 C 80.792 31.861,80.636 31.665,80.552 31.425 C 80.468 31.185,80.122 30.541,79.783 29.994 C 79.443 29.446,79.094 28.802,79.006 28.563 C 78.918 28.323,78.748 28.127,78.627 28.127 C 78.506 28.127,78.407 27.967,78.407 27.771 C 78.407 27.576,78.267 27.266,78.096 27.083 C 77.925 26.900,77.573 26.335,77.314 25.828 C 77.055 25.321,76.759 24.957,76.657 25.021 C 76.554 25.084,76.397 24.745,76.307 24.267 C 76.218 23.789,76.037 23.398,75.907 23.398 C 75.776 23.398,75.669 23.226,75.669 23.016 C 75.669 22.807,75.508 22.573,75.311 22.498 C 75.114 22.422,74.881 22.034,74.793 21.634 C 74.705 21.235,74.533 20.909,74.409 20.909 C 74.286 20.909,74.115 20.629,74.029 20.286 C 73.943 19.944,73.785 19.664,73.678 19.664 C 73.570 19.664,73.412 19.384,73.327 19.042 C 73.241 18.699,73.060 18.419,72.926 18.419 C 72.792 18.419,72.682 18.260,72.682 18.065 C 72.682 17.870,72.405 17.382,72.067 16.980 C 71.728 16.577,71.523 16.177,71.610 16.089 C 71.698 16.002,71.639 15.930,71.479 15.930 C 71.319 15.930,71.189 15.762,71.189 15.557 C 71.189 15.352,71.079 15.184,70.944 15.184 C 70.810 15.184,70.630 14.904,70.544 14.561 C 70.458 14.219,70.300 13.939,70.193 13.939 C 70.086 13.939,69.928 13.659,69.842 13.317 C 69.756 12.974,69.585 12.694,69.461 12.694 C 69.338 12.694,69.163 12.358,69.073 11.948 C 68.983 11.537,68.806 11.201,68.680 11.201 C 68.554 11.201,68.451 11.029,68.451 10.820 C 68.451 10.610,68.289 10.377,68.092 10.301 C 67.895 10.226,67.662 9.837,67.575 9.438 C 67.487 9.039,67.320 8.712,67.203 8.712 C 67.086 8.712,66.912 8.460,66.816 8.152 C 66.720 7.844,66.572 7.536,66.488 7.467 C 66.242 7.267,65.710 6.384,65.552 5.912 C 65.471 5.672,65.307 5.476,65.186 5.476 C 65.065 5.476,64.966 5.305,64.966 5.095 C 64.966 4.885,64.805 4.652,64.608 4.576 C 64.411 4.501,64.178 4.112,64.090 3.713 C 64.002 3.314,63.830 2.987,63.706 2.987 C 63.583 2.987,63.412 2.707,63.326 2.365 C 63.240 2.022,63.070 1.742,62.948 1.742 C 62.825 1.742,62.726 1.592,62.726 1.407 C 62.726 1.223,62.516 0.831,62.261 0.536 L 61.796 0.000 30.898 0.000 L 0.000 0.000 0.000 124.332 M148.600 32.111 L 148.600 64.221 179.278 64.158 L 209.956 64.095 210.020 32.047 L 210.083 0.000 179.341 0.000 L 148.600 0.000 148.600 32.111 M148.600 69.674 C 148.600 70.074,148.684 70.438,148.787 70.483 C 149.020 70.587,150.093 72.105,150.093 72.332 C 150.093 72.424,150.325 72.700,150.608 72.945 C 150.890 73.190,151.117 73.428,151.112 73.472 C 151.068 73.857,151.456 74.665,151.736 74.773 C 151.928 74.846,152.085 75.078,152.085 75.288 C 152.085 75.497,152.189 75.669,152.317 75.669 C 152.444 75.669,152.627 75.916,152.723 76.217 C 152.819 76.519,153.050 76.919,153.238 77.106 C 153.425 77.294,153.578 77.607,153.578 77.802 C 153.578 77.998,153.690 78.158,153.827 78.158 C 153.964 78.158,154.076 78.330,154.076 78.539 C 154.076 78.749,154.234 78.981,154.427 79.055 C 154.620 79.129,154.846 79.462,154.929 79.794 C 155.013 80.126,155.191 80.398,155.325 80.398 C 155.460 80.398,155.569 80.570,155.569 80.779 C 155.569 80.989,155.727 81.221,155.920 81.295 C 156.113 81.369,156.339 81.702,156.423 82.034 C 156.506 82.367,156.684 82.638,156.819 82.638 C 156.953 82.638,157.063 82.806,157.063 83.012 C 157.063 83.217,157.163 83.385,157.285 83.385 C 157.407 83.385,157.577 83.665,157.663 84.007 C 157.749 84.350,157.929 84.630,158.063 84.630 C 158.198 84.630,158.307 84.801,158.307 85.011 C 158.307 85.221,158.475 85.457,158.681 85.535 C 158.886 85.614,159.054 85.827,159.054 86.008 C 159.054 86.189,159.207 86.490,159.395 86.677 C 159.582 86.864,159.821 87.292,159.926 87.628 C 160.031 87.964,160.186 88.295,160.270 88.363 C 160.533 88.577,161.543 90.077,161.543 90.253 C 161.543 90.345,161.775 90.621,162.057 90.867 C 162.340 91.112,162.582 91.405,162.595 91.518 C 162.667 92.157,162.877 92.576,163.186 92.694 C 163.378 92.768,163.535 93.000,163.535 93.209 C 163.535 93.419,163.639 93.591,163.767 93.591 C 163.894 93.591,164.077 93.837,164.173 94.139 C 164.269 94.441,164.500 94.841,164.687 95.028 C 164.875 95.215,165.028 95.517,165.028 95.697 C 165.028 95.878,165.196 96.091,165.401 96.170 C 165.607 96.248,165.775 96.484,165.775 96.694 C 165.775 96.904,165.887 97.075,166.024 97.075 C 166.161 97.075,166.273 97.235,166.273 97.431 C 166.273 97.626,166.413 97.939,166.584 98.126 C 167.004 98.585,167.468 99.323,167.760 100.000 C 167.894 100.308,168.117 100.560,168.258 100.560 C 168.398 100.560,168.513 100.728,168.513 100.933 C 168.513 101.139,168.613 101.307,168.735 101.307 C 168.857 101.307,169.027 101.587,169.113 101.929 C 169.199 102.271,169.379 102.551,169.513 102.551 C 169.647 102.551,169.757 102.723,169.757 102.933 C 169.757 103.142,169.925 103.378,170.131 103.457 C 170.336 103.536,170.504 103.748,170.504 103.929 C 170.504 104.110,170.657 104.411,170.845 104.599 C 171.032 104.786,171.271 105.214,171.376 105.550 C 171.481 105.886,171.636 106.217,171.720 106.285 C 171.983 106.498,172.993 107.998,172.993 108.175 C 172.993 108.267,173.225 108.543,173.507 108.788 C 173.790 109.034,174.007 109.271,173.989 109.315 C 173.938 109.444,174.311 110.379,174.468 110.516 C 174.808 110.813,175.731 112.261,175.731 112.498 C 175.731 112.640,175.841 112.757,175.975 112.757 C 176.110 112.757,176.288 113.029,176.371 113.361 C 176.455 113.693,176.681 114.026,176.874 114.100 C 177.067 114.174,177.225 114.406,177.225 114.616 C 177.225 114.825,177.337 114.997,177.474 114.997 C 177.610 114.997,177.722 115.157,177.722 115.352 C 177.722 115.548,177.876 115.861,178.063 116.049 C 178.250 116.236,178.482 116.636,178.578 116.938 C 178.673 117.239,178.856 117.486,178.984 117.486 C 179.111 117.486,179.216 117.658,179.216 117.867 C 179.216 118.077,179.384 118.313,179.589 118.392 C 179.795 118.470,179.963 118.691,179.963 118.882 C 179.963 119.072,180.063 119.228,180.185 119.228 C 180.307 119.228,180.477 119.508,180.563 119.851 C 180.649 120.193,180.829 120.473,180.963 120.473 C 181.097 120.473,181.207 120.644,181.207 120.854 C 181.207 121.064,181.375 121.300,181.581 121.379 C 181.786 121.457,181.954 121.737,181.954 122.001 C 181.954 122.264,182.112 122.540,182.305 122.614 C 182.498 122.689,182.731 123.048,182.822 123.413 C 182.914 123.778,183.064 124.134,183.156 124.204 C 183.445 124.424,184.443 125.919,184.443 126.133 C 184.443 126.245,184.661 126.494,184.928 126.686 C 185.194 126.878,185.366 127.110,185.310 127.201 C 185.253 127.292,185.423 127.598,185.686 127.881 C 185.950 128.164,186.236 128.677,186.322 129.021 C 186.409 129.365,186.637 129.707,186.830 129.781 C 187.023 129.855,187.181 130.087,187.181 130.297 C 187.181 130.507,187.291 130.678,187.425 130.678 C 187.560 130.678,187.740 130.958,187.826 131.301 C 187.912 131.643,188.074 131.923,188.186 131.923 C 188.299 131.923,188.642 132.427,188.950 133.043 C 189.258 133.659,189.590 134.163,189.687 134.163 C 189.785 134.163,189.935 134.443,190.021 134.785 C 190.107 135.128,190.287 135.408,190.422 135.408 C 190.556 135.408,190.666 135.579,190.666 135.789 C 190.666 135.998,190.834 136.234,191.039 136.313 C 191.245 136.392,191.413 136.613,191.413 136.803 C 191.413 136.994,191.525 137.150,191.661 137.150 C 191.798 137.150,191.910 137.310,191.910 137.506 C 191.910 137.701,192.064 138.014,192.251 138.202 C 192.438 138.389,192.670 138.789,192.766 139.091 C 192.861 139.392,193.044 139.639,193.172 139.639 C 193.299 139.639,193.404 139.811,193.404 140.020 C 193.404 140.230,193.562 140.462,193.755 140.536 C 193.948 140.610,194.181 140.970,194.272 141.335 C 194.364 141.700,194.514 142.056,194.606 142.126 C 194.923 142.367,195.893 143.851,195.893 144.095 C 195.893 144.230,196.102 144.487,196.357 144.665 C 196.613 144.844,196.836 145.103,196.853 145.240 C 196.870 145.376,197.051 145.683,197.254 145.920 C 197.458 146.158,197.693 146.626,197.777 146.960 C 197.861 147.295,198.087 147.629,198.280 147.703 C 198.473 147.777,198.631 148.009,198.631 148.219 C 198.631 148.428,198.735 148.600,198.863 148.600 C 198.991 148.600,199.174 148.847,199.269 149.148 C 199.365 149.450,199.597 149.850,199.784 150.037 C 199.971 150.225,200.124 150.538,200.124 150.733 C 200.124 150.929,200.236 151.089,200.373 151.089 C 200.510 151.089,200.622 151.261,200.622 151.470 C 200.622 151.680,200.780 151.912,200.973 151.986 C 201.166 152.060,201.392 152.393,201.476 152.725 C 201.559 153.057,201.737 153.329,201.872 153.329 C 202.006 153.329,202.116 153.501,202.116 153.710 C 202.116 153.920,202.284 154.156,202.489 154.235 C 202.694 154.314,202.862 154.534,202.862 154.725 C 202.862 154.916,202.974 155.072,203.111 155.072 C 203.248 155.072,203.360 155.232,203.360 155.427 C 203.360 155.623,203.514 155.936,203.701 156.123 C 203.888 156.311,204.120 156.711,204.215 157.012 C 204.311 157.314,204.494 157.561,204.622 157.561 C 204.749 157.561,204.854 157.732,204.854 157.942 C 204.854 158.151,205.015 158.385,205.212 158.460 C 205.753 158.668,205.992 160.077,205.542 160.406 C 205.340 160.553,205.095 160.926,204.998 161.233 C 204.900 161.541,204.725 161.792,204.608 161.792 C 204.491 161.792,204.322 162.128,204.231 162.539 C 204.141 162.950,203.961 163.286,203.831 163.286 C 203.700 163.286,203.520 163.477,203.431 163.710 C 203.341 163.944,203.120 164.308,202.939 164.519 C 202.758 164.731,202.595 165.016,202.578 165.152 C 202.561 165.289,202.347 165.542,202.102 165.713 C 201.857 165.884,201.586 166.351,201.498 166.750 C 201.410 167.149,201.177 167.537,200.980 167.613 C 200.783 167.689,200.622 167.922,200.622 168.132 C 200.622 168.341,200.512 168.513,200.378 168.513 C 200.244 168.513,200.066 168.785,199.982 169.117 C 199.899 169.449,199.673 169.782,199.480 169.856 C 199.287 169.930,199.129 170.162,199.129 170.372 C 199.129 170.581,199.017 170.753,198.880 170.753 C 198.743 170.753,198.631 170.980,198.631 171.259 C 198.631 171.537,198.473 171.825,198.280 171.899 C 198.087 171.973,197.861 172.305,197.778 172.638 C 197.694 172.970,197.516 173.242,197.382 173.242 C 197.247 173.242,197.138 173.410,197.138 173.615 C 197.138 173.821,197.033 173.989,196.906 173.989 C 196.779 173.989,196.423 174.493,196.115 175.109 C 195.808 175.725,195.464 176.229,195.351 176.229 C 195.238 176.229,195.146 176.383,195.146 176.572 C 195.146 176.760,194.985 177.048,194.789 177.211 C 194.592 177.374,194.361 177.827,194.276 178.217 C 194.190 178.606,193.959 178.987,193.762 179.063 C 193.565 179.138,193.404 179.372,193.404 179.581 C 193.404 179.791,193.294 179.963,193.160 179.963 C 193.025 179.963,192.847 180.235,192.764 180.567 C 192.680 180.899,192.454 181.232,192.261 181.306 C 192.068 181.380,191.910 181.612,191.910 181.822 C 191.910 182.031,191.798 182.203,191.661 182.203 C 191.525 182.203,191.413 182.415,191.413 182.674 C 191.413 182.933,191.245 183.210,191.039 183.289 C 190.834 183.367,190.666 183.603,190.666 183.813 C 190.666 184.023,190.556 184.194,190.422 184.194 C 190.287 184.194,190.109 184.466,190.026 184.798 C 189.942 185.131,189.716 185.463,189.523 185.537 C 189.330 185.611,189.172 185.844,189.172 186.053 C 189.172 186.263,189.060 186.434,188.923 186.434 C 188.787 186.434,188.675 186.594,188.675 186.790 C 188.675 186.986,188.535 187.298,188.363 187.485 C 187.943 187.944,187.480 188.682,187.187 189.359 C 187.053 189.667,186.842 189.919,186.716 189.919 C 186.591 189.919,186.418 190.201,186.331 190.545 C 186.245 190.890,185.981 191.397,185.744 191.673 C 185.508 191.950,185.365 192.200,185.427 192.230 C 185.490 192.259,185.266 192.581,184.930 192.945 C 183.973 193.979,183.771 194.271,183.569 194.905 C 183.466 195.230,183.229 195.650,183.041 195.837 C 182.854 196.024,182.701 196.325,182.701 196.506 C 182.701 196.687,182.533 196.900,182.327 196.979 C 182.122 197.057,181.954 197.293,181.954 197.503 C 181.954 197.713,181.844 197.884,181.710 197.884 C 181.575 197.884,181.395 198.164,181.309 198.507 C 181.224 198.849,181.066 199.129,180.960 199.129 C 180.854 199.129,180.702 199.325,180.621 199.564 C 180.413 200.184,179.891 200.962,179.527 201.195 C 179.356 201.304,179.216 201.556,179.216 201.755 C 179.216 201.953,179.106 202.116,178.972 202.116 C 178.837 202.116,178.657 202.396,178.571 202.738 C 178.486 203.080,178.315 203.360,178.193 203.360 C 178.071 203.360,177.971 203.532,177.971 203.741 C 177.971 203.951,177.813 204.183,177.620 204.257 C 177.427 204.331,177.201 204.664,177.118 204.996 C 177.034 205.329,176.865 205.600,176.742 205.600 C 176.618 205.600,176.444 205.937,176.353 206.347 C 176.263 206.758,176.088 207.094,175.965 207.094 C 175.842 207.094,175.670 207.374,175.584 207.716 C 175.499 208.058,175.325 208.339,175.199 208.339 C 175.072 208.339,174.894 208.535,174.803 208.774 C 174.711 209.014,174.438 209.423,174.197 209.683 C 173.955 209.943,173.816 210.251,173.888 210.368 C 173.959 210.484,173.900 210.579,173.755 210.579 C 173.610 210.579,173.491 210.747,173.491 210.952 C 173.491 211.157,173.381 211.325,173.247 211.325 C 173.113 211.325,172.934 211.597,172.851 211.930 C 172.768 212.262,172.541 212.595,172.348 212.669 C 172.155 212.743,171.998 212.975,171.998 213.184 C 171.998 213.394,171.888 213.566,171.753 213.566 C 171.619 213.566,171.439 213.846,171.353 214.188 C 171.267 214.530,171.097 214.810,170.975 214.810 C 170.853 214.810,170.753 214.982,170.753 215.191 C 170.753 215.401,170.595 215.633,170.402 215.707 C 170.209 215.781,169.983 216.114,169.899 216.446 C 169.816 216.778,169.638 217.050,169.504 217.050 C 169.369 217.050,169.259 217.210,169.259 217.406 C 169.259 217.602,169.113 217.910,168.934 218.090 C 168.638 218.391,168.386 218.882,168.290 219.347 C 168.269 219.447,168.003 219.800,167.698 220.132 C 166.810 221.100,166.521 221.494,166.521 221.739 C 166.521 221.865,166.361 222.101,166.164 222.264 C 165.968 222.427,165.737 222.880,165.651 223.270 C 165.565 223.659,165.334 224.040,165.137 224.116 C 164.940 224.191,164.779 224.425,164.779 224.634 C 164.779 224.844,164.669 225.016,164.535 225.016 C 164.401 225.016,164.223 225.287,164.139 225.620 C 164.056 225.952,163.830 226.285,163.637 226.359 C 163.444 226.433,163.286 226.665,163.286 226.875 C 163.286 227.084,163.174 227.256,163.037 227.256 C 162.900 227.256,162.788 227.468,162.788 227.727 C 162.788 227.986,162.620 228.263,162.414 228.341 C 162.209 228.420,162.041 228.656,162.041 228.866 C 162.041 229.076,161.931 229.247,161.797 229.247 C 161.663 229.247,161.484 229.519,161.401 229.851 C 161.318 230.184,161.092 230.516,160.899 230.590 C 160.706 230.664,160.548 230.896,160.548 231.106 C 160.548 231.316,160.448 231.487,160.326 231.487 C 160.204 231.487,160.033 231.767,159.948 232.110 C 159.862 232.452,159.682 232.732,159.547 232.732 C 159.413 232.732,159.303 232.854,159.303 233.004 C 159.303 233.153,159.079 233.560,158.805 233.908 C 158.531 234.257,158.307 234.750,158.307 235.006 C 158.307 235.261,158.192 235.470,158.051 235.470 C 157.909 235.470,157.721 235.661,157.631 235.894 C 157.541 236.128,157.293 236.524,157.079 236.774 C 156.865 237.024,156.715 237.278,156.746 237.339 C 156.777 237.400,156.525 237.727,156.186 238.066 C 155.847 238.406,155.569 238.919,155.569 239.207 C 155.569 239.495,155.465 239.666,155.338 239.588 C 155.211 239.509,155.029 239.694,154.932 239.997 C 154.836 240.301,154.604 240.703,154.416 240.890 C 154.229 241.077,154.076 241.378,154.076 241.559 C 154.076 241.740,153.908 241.953,153.703 242.032 C 153.497 242.110,153.329 242.346,153.329 242.556 C 153.329 242.766,153.217 242.937,153.080 242.937 C 152.943 242.937,152.831 243.097,152.831 243.293 C 152.831 243.488,152.678 243.802,152.491 243.989 C 152.304 244.176,152.072 244.576,151.976 244.878 C 151.881 245.179,151.698 245.426,151.570 245.426 C 151.442 245.426,151.338 245.582,151.338 245.773 C 151.338 245.964,151.170 246.184,150.965 246.263 C 150.759 246.342,150.591 246.568,150.591 246.767 C 150.591 246.965,150.487 247.164,150.361 247.210 C 150.234 247.256,150.054 247.601,149.960 247.978 L 149.790 248.662 179.545 248.662 C 211.326 248.662,210.081 248.707,210.081 247.551 C 210.081 247.370,210.249 247.157,210.454 247.079 C 210.660 247.000,210.828 246.720,210.828 246.456 C 210.828 246.193,210.996 245.913,211.201 245.834 C 211.406 245.755,211.574 245.519,211.574 245.310 C 211.574 245.100,211.684 244.928,211.819 244.928 C 211.953 244.928,212.131 244.657,212.214 244.324 C 212.298 243.992,212.524 243.659,212.717 243.585 C 212.910 243.511,213.068 243.279,213.068 243.069 C 213.068 242.860,213.178 242.688,213.312 242.688 C 213.446 242.688,213.626 242.408,213.712 242.066 C 213.798 241.724,213.968 241.444,214.090 241.444 C 214.213 241.444,214.312 241.276,214.312 241.070 C 214.312 240.865,214.422 240.697,214.557 240.697 C 214.691 240.697,214.869 240.425,214.952 240.093 C 215.036 239.760,215.262 239.428,215.455 239.354 C 215.648 239.280,215.806 239.048,215.806 238.838 C 215.806 238.628,215.916 238.457,216.050 238.457 C 216.184 238.457,216.362 238.185,216.446 237.852 C 216.529 237.520,216.755 237.188,216.948 237.114 C 217.141 237.040,217.299 236.807,217.299 236.598 C 217.299 236.388,217.404 236.217,217.531 236.217 C 217.659 236.217,217.842 235.970,217.938 235.668 C 218.033 235.366,218.265 234.966,218.452 234.779 C 218.640 234.592,218.793 234.279,218.793 234.083 C 218.793 233.887,218.905 233.727,219.042 233.727 C 219.179 233.727,219.291 233.556,219.291 233.346 C 219.291 233.137,219.459 232.901,219.664 232.822 C 219.869 232.743,220.037 232.523,220.037 232.332 C 220.037 232.141,220.147 231.985,220.282 231.985 C 220.416 231.985,220.596 231.705,220.682 231.363 C 220.768 231.021,220.941 230.741,221.066 230.741 C 221.192 230.741,221.403 230.488,221.536 230.180 C 221.829 229.503,222.293 228.765,222.713 228.306 C 222.884 228.120,223.024 227.819,223.024 227.638 C 223.024 227.457,223.192 227.245,223.398 227.166 C 223.603 227.087,223.771 226.851,223.771 226.641 C 223.771 226.432,223.881 226.260,224.015 226.260 C 224.149 226.260,224.330 225.980,224.416 225.638 C 224.501 225.296,224.659 225.016,224.765 225.016 C 224.871 225.016,225.023 224.820,225.104 224.580 C 225.312 223.960,225.834 223.183,226.198 222.950 C 226.369 222.840,226.509 222.588,226.509 222.390 C 226.509 222.191,226.619 222.029,226.753 222.029 C 226.887 222.029,227.066 221.757,227.149 221.424 C 227.232 221.092,227.459 220.759,227.652 220.685 C 227.845 220.611,228.002 220.379,228.002 220.170 C 228.002 219.960,228.107 219.788,228.235 219.788 C 228.362 219.788,228.545 219.542,228.641 219.240 C 228.737 218.938,228.968 218.538,229.155 218.351 C 229.343 218.164,229.496 217.850,229.496 217.655 C 229.496 217.459,229.608 217.299,229.745 217.299 C 229.882 217.299,229.994 217.128,229.994 216.918 C 229.994 216.708,230.152 216.476,230.345 216.402 C 230.538 216.328,230.764 215.996,230.847 215.663 C 230.931 215.331,231.109 215.059,231.243 215.059 C 231.377 215.059,231.487 214.891,231.487 214.686 C 231.487 214.480,231.602 214.312,231.742 214.312 C 231.883 214.312,232.106 214.060,232.240 213.752 C 232.532 213.075,232.996 212.337,233.416 211.878 C 233.587 211.692,233.727 211.391,233.727 211.210 C 233.727 211.029,233.895 210.816,234.101 210.738 C 234.306 210.659,234.474 210.423,234.474 210.213 C 234.474 209.692,234.950 209.731,235.148 210.268 C 235.237 210.507,235.377 210.759,235.460 210.828 C 235.543 210.896,235.983 211.540,236.437 212.259 C 236.892 212.978,237.352 213.566,237.460 213.566 C 237.568 213.566,237.726 213.846,237.812 214.188 C 237.898 214.530,238.078 214.810,238.213 214.810 C 238.347 214.810,238.457 214.982,238.457 215.191 C 238.457 215.401,238.615 215.633,238.808 215.707 C 239.001 215.781,239.227 216.114,239.310 216.446 C 239.394 216.778,239.572 217.050,239.706 217.050 C 239.840 217.050,239.950 217.167,239.950 217.309 C 239.950 217.554,240.894 219.023,241.223 219.291 C 241.308 219.359,241.455 219.667,241.551 219.975 C 241.647 220.283,241.831 220.535,241.958 220.535 C 242.086 220.535,242.190 220.707,242.190 220.916 C 242.190 221.126,242.358 221.362,242.564 221.441 C 242.769 221.520,242.937 221.740,242.937 221.931 C 242.937 222.122,243.042 222.278,243.169 222.278 C 243.297 222.278,243.480 222.524,243.575 222.826 C 243.671 223.128,243.903 223.528,244.090 223.715 C 244.277 223.902,244.431 224.204,244.431 224.384 C 244.431 224.565,244.599 224.778,244.804 224.857 C 245.009 224.935,245.177 225.171,245.177 225.381 C 245.177 225.591,245.287 225.762,245.422 225.762 C 245.556 225.762,245.734 226.034,245.817 226.367 C 245.901 226.699,246.127 227.031,246.320 227.105 C 246.513 227.180,246.671 227.412,246.671 227.621 C 246.671 227.831,246.775 228.002,246.903 228.002 C 247.031 228.002,247.210 228.238,247.302 228.527 C 247.466 229.044,247.895 229.651,248.700 230.504 C 248.926 230.744,249.185 231.175,249.277 231.463 C 249.368 231.750,249.547 231.985,249.675 231.985 C 249.802 231.985,249.907 232.157,249.907 232.366 C 249.907 232.576,250.065 232.808,250.258 232.882 C 250.451 232.956,250.677 233.289,250.760 233.621 C 250.844 233.953,251.013 234.225,251.136 234.225 C 251.260 234.225,251.434 234.561,251.525 234.972 C 251.615 235.383,251.774 235.719,251.878 235.719 C 251.982 235.719,252.197 236.005,252.357 236.355 C 252.516 236.705,252.740 236.934,252.853 236.864 C 252.967 236.794,253.060 236.874,253.060 237.041 C 253.060 237.450,254.396 239.452,254.669 239.452 C 254.788 239.452,254.885 239.612,254.885 239.808 C 254.885 240.004,255.038 240.317,255.225 240.504 C 255.413 240.691,255.644 241.091,255.740 241.393 C 255.836 241.695,256.019 241.942,256.146 241.942 C 256.274 241.942,256.378 242.113,256.378 242.323 C 256.378 242.532,256.536 242.764,256.729 242.839 C 256.922 242.913,257.148 243.245,257.232 243.577 C 257.315 243.910,257.493 244.182,257.628 244.182 C 257.762 244.182,257.872 244.353,257.872 244.563 C 257.872 244.773,258.040 245.009,258.245 245.087 C 258.451 245.166,258.619 245.387,258.619 245.577 C 258.619 245.768,258.737 245.924,258.882 245.924 C 259.027 245.924,259.077 246.036,258.992 246.173 C 258.907 246.310,258.944 246.422,259.073 246.422 C 259.202 246.422,259.373 246.618,259.453 246.857 C 259.641 247.416,260.166 248.237,260.485 248.472 C 261.180 248.982,320.100 248.678,320.100 248.164 C 320.100 247.890,320.000 247.666,319.878 247.666 C 319.756 247.666,319.579 247.360,319.485 246.984 C 319.390 246.609,319.229 246.245,319.125 246.175 C 319.021 246.106,318.622 245.507,318.237 244.844 C 317.852 244.182,317.393 243.585,317.216 243.517 C 317.039 243.449,316.822 243.067,316.735 242.667 C 316.647 242.268,316.474 241.942,316.351 241.942 C 316.227 241.942,316.056 241.661,315.970 241.319 C 315.884 240.977,315.711 240.697,315.586 240.697 C 315.461 240.697,315.249 240.445,315.116 240.137 C 314.836 239.489,314.319 238.637,314.097 238.457 C 314.013 238.388,313.865 238.080,313.769 237.772 C 313.673 237.464,313.490 237.212,313.362 237.212 C 313.235 237.212,313.130 237.041,313.130 236.831 C 313.130 236.621,312.972 236.389,312.779 236.315 C 312.586 236.241,312.360 235.909,312.277 235.576 C 312.193 235.244,312.015 234.972,311.881 234.972 C 311.746 234.972,311.637 234.804,311.637 234.599 C 311.637 234.393,311.537 234.225,311.415 234.225 C 311.293 234.225,311.122 233.945,311.037 233.603 C 310.951 233.261,310.770 232.981,310.636 232.981 C 310.502 232.981,310.392 232.809,310.392 232.600 C 310.392 232.390,310.234 232.158,310.041 232.084 C 309.848 232.010,309.622 231.677,309.539 231.345 C 309.455 231.012,309.286 230.741,309.163 230.741 C 309.039 230.741,308.864 230.404,308.774 229.994 C 308.684 229.583,308.504 229.247,308.375 229.247 C 308.245 229.247,308.031 228.995,307.897 228.687 C 307.627 228.063,307.108 227.197,306.889 227.007 C 306.810 226.938,306.530 226.490,306.266 226.011 C 306.003 225.532,305.647 225.050,305.476 224.941 C 305.305 224.831,305.165 224.579,305.165 224.381 C 305.165 224.182,305.055 224.020,304.921 224.020 C 304.786 224.020,304.608 223.748,304.525 223.416 C 304.441 223.083,304.215 222.751,304.022 222.677 C 303.829 222.603,303.671 222.315,303.671 222.036 C 303.671 221.758,303.559 221.531,303.423 221.531 C 303.286 221.531,303.174 221.359,303.174 221.150 C 303.174 220.940,303.016 220.708,302.823 220.634 C 302.630 220.560,302.404 220.227,302.320 219.895 C 302.237 219.563,302.059 219.291,301.924 219.291 C 301.790 219.291,301.680 219.119,301.680 218.909 C 301.680 218.700,301.512 218.464,301.307 218.385 C 301.101 218.306,300.933 218.046,300.933 217.807 C 300.933 217.568,300.662 217.079,300.330 216.721 C 299.999 216.364,299.655 215.843,299.567 215.565 C 299.479 215.287,299.311 215.059,299.194 215.059 C 299.077 215.059,298.910 214.732,298.822 214.333 C 298.735 213.934,298.502 213.545,298.305 213.470 C 298.108 213.394,297.946 213.161,297.946 212.951 C 297.946 212.742,297.842 212.570,297.714 212.570 C 297.587 212.570,297.404 212.323,297.308 212.022 C 297.212 211.720,296.981 211.320,296.794 211.133 C 296.606 210.945,296.453 210.632,296.453 210.436 C 296.453 210.241,296.341 210.081,296.204 210.081 C 296.067 210.081,295.955 209.909,295.955 209.700 C 295.955 209.490,295.797 209.258,295.604 209.184 C 295.411 209.110,295.185 208.777,295.102 208.445 C 295.018 208.113,294.840 207.841,294.706 207.841 C 294.572 207.841,294.462 207.673,294.462 207.467 C 294.462 207.262,294.353 207.094,294.219 207.094 C 294.086 207.094,293.747 206.590,293.466 205.974 C 293.185 205.358,292.859 204.854,292.740 204.854 C 292.621 204.854,292.454 204.574,292.368 204.231 C 292.282 203.889,292.102 203.609,291.968 203.609 C 291.834 203.609,291.724 203.438,291.724 203.228 C 291.724 203.018,291.566 202.786,291.373 202.712 C 291.180 202.638,290.947 202.279,290.855 201.914 C 290.764 201.548,290.604 201.192,290.500 201.123 C 290.396 201.053,289.997 200.454,289.612 199.792 C 289.228 199.129,288.768 198.532,288.591 198.464 C 288.414 198.396,288.198 198.014,288.110 197.615 C 288.022 197.215,287.850 196.889,287.726 196.889 C 287.603 196.889,287.431 196.609,287.346 196.266 C 287.260 195.924,287.087 195.644,286.961 195.644 C 286.836 195.644,286.624 195.392,286.491 195.084 C 286.211 194.436,285.694 193.584,285.472 193.404 C 285.388 193.335,285.240 193.027,285.144 192.719 C 285.048 192.411,284.865 192.159,284.737 192.159 C 284.610 192.159,284.505 191.988,284.505 191.778 C 284.505 191.568,284.347 191.336,284.154 191.262 C 283.961 191.188,283.735 190.856,283.652 190.523 C 283.568 190.191,283.390 189.919,283.256 189.919 C 283.122 189.919,283.012 189.751,283.012 189.546 C 283.012 189.340,282.912 189.172,282.790 189.172 C 282.668 189.172,282.498 188.892,282.412 188.550 C 282.326 188.208,282.146 187.928,282.011 187.928 C 281.877 187.928,281.767 187.756,281.767 187.547 C 281.767 187.337,281.609 187.105,281.416 187.031 C 281.223 186.957,280.997 186.624,280.914 186.292 C 280.830 185.960,280.661 185.688,280.538 185.688 C 280.414 185.688,280.240 185.352,280.149 184.941 C 280.059 184.530,279.879 184.194,279.750 184.194 C 279.621 184.194,279.406 183.942,279.273 183.634 C 279.003 183.010,278.483 182.145,278.264 181.954 C 278.185 181.886,277.905 181.437,277.641 180.958 C 277.378 180.479,277.022 179.998,276.851 179.888 C 276.680 179.779,276.540 179.527,276.540 179.328 C 276.540 179.129,276.430 178.967,276.296 178.967 C 276.162 178.967,275.982 178.687,275.896 178.345 C 275.810 178.002,275.652 177.722,275.544 177.722 C 275.437 177.722,275.279 177.442,275.193 177.100 C 275.107 176.758,274.927 176.478,274.793 176.478 C 274.659 176.478,274.549 176.306,274.549 176.097 C 274.549 175.887,274.391 175.655,274.198 175.581 C 274.005 175.507,273.779 175.174,273.695 174.842 C 273.612 174.510,273.434 174.238,273.300 174.238 C 273.165 174.238,273.055 174.113,273.055 173.961 C 273.055 173.601,271.532 171.251,271.298 171.251 C 271.199 171.251,271.048 170.971,270.962 170.629 C 270.876 170.286,270.705 170.006,270.581 170.006 C 270.458 170.006,270.285 169.680,270.197 169.280 C 270.110 168.881,269.877 168.492,269.680 168.417 C 269.483 168.341,269.322 168.108,269.322 167.898 C 269.322 167.689,269.212 167.517,269.078 167.517 C 268.943 167.517,268.765 167.245,268.682 166.913 C 268.598 166.580,268.372 166.248,268.179 166.174 C 267.986 166.100,267.828 165.812,267.828 165.534 C 267.828 165.256,267.716 165.028,267.579 165.028 C 267.442 165.028,267.330 164.856,267.330 164.647 C 267.330 164.437,267.169 164.204,266.972 164.128 C 266.775 164.053,266.542 163.664,266.455 163.265 C 266.367 162.866,266.192 162.539,266.066 162.539 C 265.940 162.539,265.837 162.212,265.837 161.813 C 265.837 161.414,265.716 161.047,265.569 160.997 C 265.220 160.881,265.243 153.738,265.592 153.620 C 265.727 153.574,265.837 153.049,265.837 152.452 C 265.837 151.855,265.938 151.305,266.061 151.229 C 266.183 151.153,266.363 150.306,266.459 149.348 C 266.555 148.389,266.722 147.604,266.830 147.604 C 266.937 147.604,267.100 147.103,267.192 146.490 C 267.284 145.877,267.458 145.314,267.579 145.240 C 267.700 145.165,267.875 144.602,267.967 143.989 C 268.058 143.376,268.228 142.875,268.343 142.875 C 268.458 142.875,268.626 142.483,268.716 142.004 C 268.806 141.525,268.979 141.133,269.101 141.133 C 269.222 141.133,269.322 140.991,269.322 140.818 C 269.322 140.645,269.546 140.085,269.820 139.574 C 270.093 139.063,270.317 138.477,270.317 138.271 C 270.317 138.065,270.417 137.897,270.539 137.897 C 270.661 137.897,270.831 137.621,270.915 137.283 C 271.000 136.946,271.348 136.391,271.689 136.050 C 272.030 135.709,272.309 135.257,272.309 135.046 C 272.309 134.834,272.398 134.661,272.508 134.661 C 272.617 134.661,272.981 134.216,273.316 133.672 C 273.652 133.128,274.011 132.680,274.113 132.676 C 274.216 132.673,274.300 132.510,274.300 132.315 C 274.300 132.121,274.636 131.625,275.047 131.214 C 275.457 130.804,275.793 130.398,275.793 130.314 C 275.793 130.081,280.976 124.953,281.212 124.953 C 281.325 124.953,281.692 124.622,282.028 124.217 C 282.364 123.812,282.756 123.476,282.899 123.470 C 283.192 123.459,284.041 122.857,284.907 122.048 C 285.225 121.751,285.713 121.435,285.991 121.347 C 286.269 121.258,286.497 121.091,286.497 120.974 C 286.497 120.857,286.833 120.688,287.243 120.597 C 287.654 120.507,287.990 120.342,287.990 120.231 C 287.990 120.120,288.270 119.959,288.612 119.873 C 288.955 119.787,289.235 119.616,289.235 119.492 C 289.235 119.369,289.571 119.194,289.981 119.104 C 290.392 119.014,290.728 118.849,290.728 118.738 C 290.728 118.628,291.120 118.463,291.599 118.374 C 292.078 118.284,292.470 118.108,292.470 117.984 C 292.470 117.859,292.864 117.684,293.344 117.594 C 293.825 117.503,294.274 117.340,294.341 117.231 C 294.409 117.121,294.911 116.956,295.457 116.864 C 296.004 116.771,296.514 116.594,296.591 116.469 C 296.668 116.344,297.005 116.241,297.339 116.241 C 297.673 116.241,297.946 116.140,297.946 116.017 C 297.946 115.894,298.619 115.715,299.440 115.619 C 300.261 115.524,300.933 115.355,300.933 115.245 C 300.933 115.134,302.026 114.972,303.360 114.885 C 304.695 114.797,305.982 114.619,306.219 114.488 C 306.754 114.194,313.628 114.169,313.628 114.462 C 313.628 114.578,314.883 114.749,316.418 114.843 C 317.953 114.936,319.269 115.109,319.343 115.228 C 319.417 115.347,320.121 115.524,320.909 115.623 C 321.696 115.721,322.340 115.900,322.340 116.021 C 322.340 116.142,322.620 116.241,322.962 116.241 C 323.304 116.241,323.584 116.353,323.584 116.490 C 323.584 116.627,323.780 116.740,324.020 116.741 C 324.259 116.742,324.756 116.899,325.123 117.091 C 325.491 117.282,326.135 117.515,326.554 117.607 C 326.974 117.699,327.318 117.865,327.318 117.977 C 327.318 118.088,327.598 118.249,327.940 118.335 C 328.283 118.421,328.563 118.592,328.563 118.716 C 328.563 118.839,328.889 119.012,329.288 119.099 C 329.688 119.187,330.076 119.420,330.152 119.617 C 330.227 119.814,330.420 119.975,330.580 119.975 C 330.739 119.975,331.125 120.251,331.437 120.587 C 331.750 120.924,332.303 121.274,332.667 121.366 C 333.030 121.457,333.422 121.769,333.537 122.060 C 333.652 122.351,334.260 123.066,334.888 123.649 C 335.516 124.232,336.030 124.825,336.030 124.968 C 336.030 125.110,336.329 125.503,336.694 125.841 C 337.310 126.412,337.737 127.015,338.181 127.940 C 338.279 128.146,338.581 128.510,338.851 128.749 C 339.121 128.989,339.259 129.185,339.157 129.185 C 339.056 129.185,339.264 129.549,339.621 129.994 C 339.977 130.439,340.365 130.923,340.484 131.071 C 340.602 131.218,340.783 131.610,340.887 131.942 C 340.990 132.274,341.144 132.601,341.228 132.670 C 341.558 132.937,342.502 134.406,342.502 134.651 C 342.502 134.793,342.606 134.910,342.734 134.910 C 342.861 134.910,343.031 135.115,343.111 135.366 C 343.307 135.985,347.585 140.307,348.192 140.499 C 348.460 140.584,348.741 140.817,348.818 141.018 C 348.895 141.218,349.129 141.381,349.339 141.381 C 349.548 141.381,349.720 141.493,349.720 141.630 C 349.720 141.767,349.948 141.879,350.226 141.879 C 350.504 141.879,350.793 142.040,350.869 142.237 C 350.944 142.434,351.333 142.667,351.732 142.755 C 352.131 142.843,352.458 143.009,352.458 143.124 C 352.458 143.239,352.794 143.407,353.205 143.497 C 353.615 143.587,353.951 143.764,353.951 143.890 C 353.951 144.016,354.231 144.119,354.574 144.119 C 354.916 144.119,355.196 144.238,355.196 144.383 C 355.196 144.528,355.300 144.582,355.428 144.503 C 355.555 144.425,355.730 144.474,355.816 144.613 C 355.902 144.752,356.246 144.866,356.580 144.866 C 356.914 144.866,357.187 144.973,357.187 145.104 C 357.187 145.235,357.579 145.415,358.058 145.505 C 358.538 145.595,358.930 145.755,358.930 145.861 C 358.930 145.967,359.434 146.130,360.050 146.222 C 360.666 146.315,361.170 146.481,361.170 146.592 C 361.170 146.703,361.618 146.866,362.166 146.953 C 362.713 147.041,363.161 147.210,363.161 147.330 C 363.161 147.450,363.665 147.623,364.281 147.716 C 364.897 147.808,365.401 147.980,365.401 148.098 C 365.401 148.215,365.737 148.385,366.148 148.475 C 366.559 148.566,366.895 148.737,366.895 148.857 C 366.895 148.977,367.287 149.149,367.766 149.239 C 368.245 149.328,368.637 149.502,368.637 149.623 C 368.637 149.745,368.793 149.844,368.984 149.844 C 369.175 149.844,369.395 150.012,369.474 150.218 C 369.553 150.423,369.742 150.591,369.894 150.591 C 370.250 150.591,373.118 153.452,373.118 153.807 C 373.118 153.955,373.230 154.076,373.367 154.076 C 373.503 154.076,373.603 154.160,373.589 154.263 C 373.536 154.629,373.926 155.569,374.131 155.569 C 374.246 155.569,374.417 155.989,374.511 156.503 C 374.606 157.016,374.777 157.498,374.892 157.573 C 375.008 157.649,375.177 159.189,375.268 160.996 C 375.360 162.803,375.517 164.281,375.617 164.281 C 375.717 164.281,375.875 164.785,375.967 165.401 C 376.059 166.017,376.228 166.521,376.342 166.521 C 376.455 166.521,376.619 166.801,376.705 167.144 C 376.790 167.486,376.971 167.766,377.105 167.766 C 377.239 167.766,377.349 167.925,377.349 168.120 C 377.349 168.520,378.749 170.006,379.125 170.006 C 379.260 170.006,379.306 170.110,379.227 170.237 C 379.148 170.364,379.310 170.540,379.586 170.627 C 379.861 170.715,380.087 170.891,380.087 171.019 C 380.087 171.146,380.259 171.251,380.468 171.251 C 380.678 171.251,380.911 171.412,380.987 171.609 C 381.063 171.806,381.451 172.039,381.850 172.127 C 382.250 172.214,382.576 172.389,382.576 172.515 C 382.576 172.641,382.834 172.744,383.149 172.744 C 383.464 172.744,383.859 172.882,384.028 173.051 C 384.431 173.454,389.981 173.479,390.815 173.081 C 392.150 172.443,393.244 171.998,393.477 171.998 C 393.613 171.998,393.788 171.829,393.867 171.624 C 393.946 171.419,394.135 171.251,394.287 171.251 C 394.643 171.251,397.511 168.390,397.511 168.035 C 397.511 167.887,397.611 167.766,397.733 167.766 C 397.855 167.766,398.032 167.459,398.126 167.084 C 398.220 166.709,398.409 166.333,398.545 166.249 C 398.682 166.164,398.855 165.631,398.932 165.064 C 399.008 164.497,399.167 164.032,399.286 164.032 C 399.405 164.032,399.502 161.624,399.502 158.681 C 399.502 155.737,399.405 153.329,399.285 153.329 C 399.166 153.329,398.988 151.873,398.889 150.093 C 398.791 148.314,398.623 146.857,398.516 146.857 C 398.409 146.857,398.244 145.963,398.149 144.871 C 398.053 143.778,397.871 142.819,397.743 142.740 C 397.615 142.661,397.511 142.155,397.511 141.616 C 397.511 141.076,397.410 140.635,397.286 140.635 C 397.163 140.635,396.984 139.963,396.889 139.141 C 396.793 138.320,396.627 137.648,396.519 137.648 C 396.412 137.648,396.247 137.032,396.153 136.279 C 396.059 135.526,395.885 134.910,395.766 134.910 C 395.647 134.910,395.475 134.406,395.382 133.790 C 395.290 133.174,395.128 132.670,395.022 132.670 C 394.916 132.670,394.754 132.166,394.661 131.549 C 394.569 130.933,394.401 130.429,394.288 130.429 C 394.175 130.429,394.007 129.925,393.915 129.309 C 393.822 128.693,393.643 128.189,393.516 128.189 C 393.389 128.189,393.214 127.741,393.126 127.194 C 393.039 126.646,392.881 126.198,392.777 126.198 C 392.672 126.198,392.512 125.890,392.421 125.513 C 392.190 124.554,391.696 123.460,391.496 123.460 C 391.403 123.460,391.254 123.124,391.164 122.713 C 391.073 122.302,390.905 121.966,390.790 121.966 C 390.675 121.966,390.505 121.623,390.413 121.203 C 390.321 120.783,390.089 120.139,389.897 119.772 C 389.706 119.404,389.548 118.976,389.547 118.819 C 389.546 118.663,389.378 118.470,389.172 118.392 C 388.967 118.313,388.799 118.077,388.799 117.867 C 388.799 117.658,388.696 117.486,388.570 117.486 C 388.444 117.486,388.267 117.150,388.177 116.739 C 388.087 116.329,387.922 115.993,387.811 115.993 C 387.699 115.993,387.538 115.713,387.452 115.370 C 387.366 115.028,387.195 114.748,387.072 114.748 C 386.948 114.748,386.773 114.412,386.683 114.001 C 386.593 113.591,386.416 113.255,386.290 113.255 C 386.164 113.255,386.061 113.086,386.061 112.881 C 386.061 112.676,385.951 112.508,385.817 112.508 C 385.683 112.508,385.504 112.236,385.421 111.904 C 385.338 111.571,385.111 111.239,384.918 111.165 C 384.725 111.091,384.568 110.858,384.568 110.649 C 384.568 110.439,384.463 110.268,384.335 110.268 C 384.208 110.268,384.025 110.021,383.929 109.719 C 383.833 109.417,383.602 109.017,383.415 108.830 C 383.227 108.643,383.074 108.330,383.074 108.134 C 383.074 107.938,382.959 107.778,382.817 107.778 C 382.676 107.778,382.488 107.582,382.400 107.343 C 382.312 107.103,381.980 106.661,381.661 106.359 C 381.343 106.058,381.083 105.699,381.083 105.561 C 381.083 105.424,380.803 105.032,380.460 104.690 C 380.118 104.347,379.838 103.973,379.838 103.858 C 379.838 103.742,379.507 103.373,379.102 103.037 C 378.697 102.702,378.361 102.296,378.355 102.135 C 378.349 101.975,377.841 101.340,377.225 100.724 C 376.609 100.108,376.105 99.527,376.105 99.432 C 376.105 99.189,368.250 91.350,368.006 91.350 C 367.896 91.350,367.322 90.846,366.732 90.230 C 366.142 89.614,365.553 89.110,365.425 89.110 C 365.296 89.110,364.855 88.774,364.444 88.363 C 364.033 87.953,363.577 87.617,363.429 87.617 C 363.282 87.617,363.161 87.498,363.161 87.353 C 363.161 87.208,363.057 87.154,362.930 87.232 C 362.803 87.311,362.628 87.149,362.540 86.874 C 362.453 86.598,362.219 86.372,362.022 86.372 C 361.824 86.372,361.471 86.148,361.237 85.874 C 361.002 85.600,360.667 85.376,360.492 85.376 C 360.317 85.376,360.174 85.267,360.174 85.132 C 360.174 84.998,359.902 84.820,359.570 84.736 C 359.238 84.653,358.905 84.427,358.831 84.234 C 358.757 84.041,358.525 83.883,358.315 83.883 C 358.106 83.883,357.934 83.779,357.934 83.651 C 357.934 83.523,357.687 83.340,357.386 83.245 C 357.084 83.149,356.684 82.917,356.497 82.730 C 356.309 82.543,355.996 82.390,355.801 82.390 C 355.605 82.390,355.445 82.278,355.445 82.141 C 355.445 82.004,355.289 81.892,355.098 81.892 C 354.907 81.892,354.687 81.724,354.608 81.518 C 354.529 81.313,354.293 81.145,354.084 81.145 C 353.874 81.145,353.703 81.045,353.703 80.923 C 353.703 80.801,353.423 80.631,353.080 80.545 C 352.738 80.459,352.458 80.288,352.458 80.164 C 352.458 80.041,352.122 79.866,351.711 79.776 C 351.301 79.686,350.965 79.518,350.965 79.403 C 350.965 79.287,350.629 79.119,350.218 79.029 C 349.807 78.939,349.471 78.771,349.471 78.656 C 349.471 78.541,349.135 78.373,348.724 78.283 C 348.314 78.192,347.978 78.015,347.978 77.889 C 347.978 77.763,347.838 77.656,347.666 77.652 C 347.495 77.647,346.907 77.427,346.360 77.162 C 345.812 76.898,345.224 76.678,345.053 76.673 C 344.882 76.668,344.742 76.553,344.742 76.416 C 344.742 76.279,344.518 76.167,344.244 76.167 C 343.970 76.167,343.746 76.043,343.746 75.891 C 343.746 75.740,343.578 75.680,343.373 75.759 C 343.167 75.838,342.999 75.794,342.999 75.661 C 342.999 75.529,342.719 75.420,342.377 75.420 C 342.035 75.420,341.755 75.309,341.755 75.174 C 341.755 75.039,341.307 74.856,340.759 74.769 C 340.212 74.681,339.764 74.524,339.764 74.420 C 339.764 74.316,339.371 74.157,338.892 74.067 C 338.413 73.978,338.021 73.810,338.021 73.695 C 338.021 73.579,337.520 73.410,336.907 73.318 C 336.294 73.226,335.736 73.060,335.668 72.949 C 335.599 72.838,334.981 72.673,334.293 72.582 C 333.606 72.491,333.043 72.319,333.043 72.200 C 333.043 72.081,332.371 71.906,331.549 71.811 C 330.728 71.715,330.056 71.548,330.056 71.438 C 330.056 71.329,329.272 71.160,328.314 71.064 C 327.355 70.968,326.571 70.788,326.571 70.665 C 326.571 70.542,326.074 70.442,325.466 70.442 C 324.858 70.442,324.299 70.343,324.224 70.222 C 324.150 70.101,323.583 70.019,322.965 70.039 C 322.347 70.060,321.842 69.991,321.842 69.886 C 321.842 69.781,321.136 69.695,320.274 69.695 C 319.378 69.695,318.576 69.566,318.404 69.394 C 317.977 68.967,300.883 68.975,300.741 69.402 C 300.679 69.586,300.050 69.695,299.046 69.695 C 298.167 69.695,297.449 69.797,297.449 69.922 C 297.449 70.047,296.889 70.120,296.204 70.085 C 295.520 70.050,294.960 70.116,294.960 70.232 C 294.960 70.347,294.400 70.442,293.715 70.442 C 293.030 70.442,292.470 70.541,292.470 70.662 C 292.470 70.783,291.742 70.960,290.853 71.055 C 289.963 71.150,289.235 71.318,289.235 71.428 C 289.235 71.538,288.507 71.706,287.617 71.802 C 286.727 71.897,285.999 72.064,285.999 72.172 C 285.999 72.280,285.439 72.443,284.754 72.534 C 284.070 72.625,283.510 72.797,283.510 72.916 C 283.510 73.035,282.950 73.210,282.265 73.304 C 281.581 73.398,281.021 73.567,281.021 73.679 C 281.021 73.791,280.573 73.958,280.026 74.051 C 279.479 74.143,278.969 74.321,278.891 74.446 C 278.814 74.571,278.562 74.674,278.330 74.675 C 278.099 74.676,277.588 74.844,277.196 75.048 C 276.804 75.253,276.328 75.420,276.138 75.420 C 275.949 75.420,275.793 75.529,275.793 75.661 C 275.793 75.794,275.625 75.838,275.420 75.759 C 275.215 75.680,275.047 75.740,275.047 75.891 C 275.047 76.043,274.767 76.167,274.424 76.167 C 274.082 76.167,273.802 76.270,273.802 76.396 C 273.802 76.522,273.466 76.699,273.055 76.789 C 272.645 76.879,272.309 77.047,272.309 77.162 C 272.309 77.278,271.973 77.446,271.562 77.536 C 271.151 77.626,270.815 77.794,270.815 77.909 C 270.815 78.024,270.479 78.192,270.068 78.283 C 269.658 78.373,269.322 78.541,269.322 78.656 C 269.322 78.771,268.986 78.939,268.575 79.029 C 268.164 79.119,267.828 79.287,267.828 79.403 C 267.828 79.518,267.492 79.686,267.082 79.776 C 266.671 79.866,266.335 80.031,266.335 80.142 C 266.335 80.253,266.055 80.415,265.713 80.500 C 265.370 80.586,265.090 80.767,265.090 80.901 C 265.090 81.035,264.922 81.145,264.717 81.145 C 264.512 81.145,264.343 81.257,264.343 81.394 C 264.343 81.531,264.259 81.625,264.157 81.603 C 263.875 81.544,263.017 81.947,262.646 82.313 C 262.465 82.492,262.169 82.638,261.988 82.638 C 261.807 82.638,261.594 82.806,261.515 83.012 C 261.437 83.217,261.201 83.385,260.991 83.385 C 260.781 83.385,260.610 83.495,260.610 83.629 C 260.610 83.764,260.338 83.942,260.006 84.025 C 259.673 84.109,259.341 84.335,259.267 84.528 C 259.193 84.721,258.904 84.879,258.626 84.879 C 258.348 84.879,258.121 84.994,258.121 85.135 C 258.121 85.277,257.925 85.464,257.685 85.552 C 257.446 85.641,257.003 85.973,256.701 86.291 C 256.400 86.610,256.044 86.870,255.910 86.870 C 255.777 86.870,255.447 87.150,255.178 87.492 C 254.909 87.834,254.573 88.114,254.431 88.114 C 254.290 88.114,253.758 88.507,253.250 88.986 C 252.742 89.465,252.228 89.857,252.108 89.857 C 251.988 89.857,251.407 90.361,250.816 90.977 C 250.226 91.593,249.669 92.097,249.578 92.097 C 249.354 92.097,243.435 97.961,243.435 98.183 C 243.435 98.281,243.051 98.734,242.583 99.189 C 242.114 99.644,241.786 100.073,241.855 100.141 C 241.923 100.210,241.752 100.338,241.475 100.426 C 241.198 100.514,240.895 100.827,240.801 101.122 C 240.707 101.417,240.310 101.941,239.917 102.285 C 239.525 102.629,239.203 103.006,239.203 103.122 C 239.203 103.239,239.063 103.490,238.892 103.681 C 238.188 104.466,237.959 104.781,237.955 104.968 C 237.952 105.076,237.669 105.432,237.325 105.759 C 236.980 106.085,236.746 106.400,236.805 106.458 C 236.863 106.516,236.670 106.827,236.377 107.148 C 236.083 107.469,235.702 107.906,235.530 108.120 C 235.181 108.554,234.474 108.403,234.474 107.894 C 234.474 107.713,234.333 107.417,234.160 107.236 C 233.987 107.055,233.708 106.627,233.540 106.285 C 233.175 105.545,232.664 104.716,232.464 104.543 C 232.385 104.474,232.109 104.054,231.850 103.609 C 231.592 103.164,231.301 102.800,231.204 102.800 C 231.108 102.800,230.957 102.474,230.870 102.074 C 230.782 101.675,230.549 101.287,230.352 101.211 C 230.155 101.135,229.994 100.902,229.994 100.692 C 229.994 100.483,229.889 100.311,229.762 100.311 C 229.634 100.311,229.451 100.059,229.355 99.751 C 229.259 99.443,229.111 99.135,229.027 99.067 C 228.697 98.799,227.754 97.330,227.754 97.085 C 227.754 96.943,227.654 96.826,227.532 96.826 C 227.410 96.826,227.239 96.546,227.154 96.204 C 227.068 95.862,226.887 95.582,226.753 95.582 C 226.619 95.582,226.509 95.410,226.509 95.201 C 226.509 94.991,226.341 94.755,226.136 94.676 C 225.930 94.597,225.762 94.377,225.762 94.186 C 225.762 93.995,225.652 93.839,225.518 93.839 C 225.384 93.839,225.204 93.559,225.118 93.217 C 225.032 92.875,224.874 92.595,224.767 92.595 C 224.659 92.595,224.501 92.315,224.416 91.973 C 224.330 91.630,224.149 91.350,224.015 91.350 C 223.881 91.350,223.771 91.179,223.771 90.969 C 223.771 90.760,223.603 90.524,223.398 90.445 C 223.192 90.366,223.024 90.153,223.024 89.972 C 223.024 89.792,222.871 89.490,222.684 89.303 C 222.496 89.116,222.257 88.688,222.152 88.352 C 222.047 88.016,221.893 87.685,221.808 87.617 C 221.724 87.548,221.269 86.932,220.797 86.248 C 220.325 85.563,219.858 84.946,219.759 84.876 C 219.660 84.806,219.504 84.450,219.412 84.085 C 219.321 83.720,219.088 83.361,218.895 83.287 C 218.702 83.212,218.544 82.980,218.544 82.771 C 218.544 82.561,218.439 82.390,218.312 82.390 C 218.184 82.390,218.001 82.143,217.906 81.841 C 217.810 81.539,217.578 81.139,217.391 80.952 C 217.204 80.765,217.050 80.452,217.050 80.256 C 217.050 80.060,216.938 79.900,216.801 79.900 C 216.665 79.900,216.553 79.729,216.553 79.519 C 216.553 79.310,216.395 79.077,216.202 79.003 C 216.009 78.929,215.783 78.597,215.699 78.265 C 215.616 77.932,215.438 77.660,215.303 77.660 C 215.169 77.660,215.059 77.489,215.059 77.279 C 215.059 77.069,214.891 76.833,214.686 76.755 C 214.480 76.676,214.312 76.399,214.312 76.140 C 214.312 75.881,214.200 75.669,214.063 75.669 C 213.927 75.669,213.815 75.497,213.815 75.288 C 213.815 75.078,213.657 74.846,213.464 74.772 C 213.271 74.698,213.045 74.365,212.961 74.033 C 212.878 73.701,212.700 73.429,212.565 73.429 C 212.431 73.429,212.321 73.257,212.321 73.048 C 212.321 72.838,212.160 72.605,211.963 72.529 C 211.766 72.453,211.533 72.065,211.445 71.666 C 211.358 71.266,211.190 70.940,211.074 70.940 C 210.957 70.940,210.786 70.704,210.695 70.415 C 210.188 68.818,212.998 68.948,179.161 68.948 L 148.600 68.948 148.600 69.674 M398.755 173.864 C 398.755 174.070,398.651 174.238,398.523 174.238 C 398.396 174.238,398.215 174.479,398.121 174.774 C 397.939 175.349,396.840 176.478,396.464 176.478 C 396.339 176.478,396.306 176.590,396.391 176.727 C 396.475 176.864,396.342 176.978,396.094 176.980 C 395.847 176.982,395.379 177.263,395.056 177.605 C 394.732 177.946,394.200 178.292,393.873 178.374 C 393.547 178.456,393.279 178.614,393.279 178.725 C 393.279 178.836,392.953 178.999,392.553 179.087 C 392.154 179.175,391.766 179.408,391.690 179.605 C 391.614 179.801,391.325 179.963,391.047 179.963 C 390.769 179.963,390.541 180.063,390.541 180.185 C 390.541 180.307,390.289 180.470,389.980 180.547 C 389.363 180.702,387.306 182.568,387.306 182.974 C 387.306 183.113,387.202 183.164,387.075 183.085 C 386.948 183.007,386.765 183.191,386.668 183.494 C 386.572 183.798,386.340 184.200,386.153 184.387 C 385.965 184.574,385.812 184.944,385.812 185.208 C 385.812 185.472,385.700 185.688,385.563 185.688 C 385.426 185.688,385.314 186.304,385.314 187.057 C 385.314 187.810,385.414 188.426,385.536 188.426 C 385.658 188.426,385.832 188.720,385.922 189.080 C 386.133 189.920,387.304 191.091,388.145 191.302 C 388.505 191.393,388.799 191.566,388.799 191.688 C 388.799 191.811,389.639 191.910,390.666 191.910 C 391.744 191.910,392.533 191.805,392.533 191.661 C 392.533 191.525,392.798 191.413,393.121 191.413 C 393.902 191.413,395.002 190.549,396.501 188.758 C 396.635 188.599,396.817 188.179,396.906 187.825 C 396.994 187.471,397.167 187.181,397.289 187.181 C 397.411 187.181,397.511 187.013,397.511 186.808 C 397.511 186.602,397.618 186.434,397.749 186.434 C 397.879 186.434,398.060 186.041,398.150 185.560 C 398.240 185.080,398.404 184.631,398.513 184.563 C 398.623 184.496,398.792 183.965,398.889 183.384 C 398.986 182.803,399.176 182.257,399.310 182.172 C 399.893 181.802,399.873 173.491,399.290 173.491 C 398.981 173.491,398.755 173.648,398.755 173.864 " stroke="none" fill="#042c54" fill-rule="evenodd"></path><path id="path3" d="" stroke="none" fill="#043454" fill-rule="evenodd"></path><path id="path4" d="" stroke="none" fill="#5458a0" fill-rule="evenodd"></path></g></svg>